<svg xmlns="http://www.w3.org/2000/svg" viewBox="0 0 454.91 320.95"><defs><style>.cls-1{isolation:isolate;}.cls-2,.cls-20{font-size:23px;}.cls-2,.cls-9{fill:#5b99bc;}.cls-19,.cls-2,.cls-20{font-weight:700;}.cls-3{opacity:0.45;}.cls-4{fill:#b4c3cc;}.cls-5{fill:#26387a;}.cls-6{fill:#ffb288;}.cls-20,.cls-7{fill:#721818;}.cls-10,.cls-11,.cls-19,.cls-8{fill:none;}.cls-8{stroke:#8e4444;}.cls-10,.cls-19,.cls-8{stroke-miterlimit:10;}.cls-10,.cls-8{stroke-width:0.5px;}.cls-10{stroke:#6db3d1;}.cls-11{stroke:#8cc2d3;stroke-linecap:round;stroke-linejoin:round;stroke-width:5px;}.cls-12,.cls-14{fill:#fdae2b;}.cls-13{fill:#ef8417;}.cls-14{opacity:0.5;mix-blend-mode:multiply;}.cls-15{fill:#ffc840;}.cls-16{fill:#0061a6;}.cls-17{fill:#ef9467;}.cls-18{fill:#e2e8ed;}.cls-19{font-size:16.81px;stroke:#5b99bc;letter-spacing:-0.03em;}</></defs><g class="cls-1"><g id="OBJECTS"><text class="cls-2" transform="translate(132.43 52.94)">PAGE NOT FOUND!</text><g class="cls-3"><path class="cls-4" d="M431,336.26c-2.7-5.15-13.68-9.29-18.59-10.23-26.22-5-53.68-4.31-80.23-4.22-28.93.09-56.52,4.72-85.21,6.86-14.91,1.11-30.68-.89-45.63-1.41q-36.93-1.27-73.84-3c-21.22-1-43.24,1.23-62,12.93-2.12,1.33-4.27,2.93-5.24,5.32-6.08,15,69.69,13.1,79.56,13.36,49.8,1.3,99.63,2,149.43.62,37-1,75.63-.94,112.35-6.17,8.12-1.15,19.17-1.57,26.19-6.35C431.69,341.33,432.25,338.68,431,336.26Z" transform="translate(-3.22 -36.27)"/></g><path class="cls-5" d="M261.1,343.76s-7,3-7,4.47c0,.86,9.61-.37,10.19-1,.93-.92-.37-3.39-.37-3.39Z" transform="translate(-3.22 -36.27)"/><path class="cls-6" d="M260.65,339.59l.45,4.3a1.31,1.31,0,0,0,1.21.77,2,2,0,0,0,1.62-.77l-.35-5.38" transform="translate(-3.22 -36.27)"/><path class="cls-7" d="M272.86,241c2.54,10.25,1.6,15.45-2.13,23.18-2.26,26-3.83,51.87-6.87,77.21l-3.21.18c-7.3-24.66-14-61.54-13.15-95.26" transform="translate(-3.22 -36.27)"/><path class="cls-8" d="M271.27,244.53a19.38,19.38,0,0,1,1.08,7.59c-.12,3.89-1.7,7.41-2.72,11.1-1.37,4.91-1.47,9.81-1.85,14.85q-.87,11.83-1.78,23.66-1.47,19.29-3,38.58c0,.38,0,.76-.08,1.14" transform="translate(-3.22 -36.27)"/><path class="cls-5" d="M289,344.76s-7,3-7,4.47c0,.86,9.61-.37,10.19-1,.92-.92-.38-3.39-.38-3.39Z" transform="translate(-3.22 -36.27)"/><path class="cls-6" d="M288.52,340.59l.45,4.3a1.31,1.31,0,0,0,1.21.77,2,2,0,0,0,1.62-.77l-.34-5.38" transform="translate(-3.22 -36.27)"/><path class="cls-7" d="M296.1,240.15c3.22,10,2.62,15.31-.58,23.26-.54,26.08-2.33,53.32-3.68,78.8h-3.31c-8.91-24.13-18.45-61.39-19.83-95.09" transform="translate(-3.22 -36.27)"/><path class="cls-8" d="M294.51,244.31s3.73,8.72-2.57,21c-.73,11.56-1.1,76.93-1.1,76.93" transform="translate(-3.22 -36.27)"/><path class="cls-8" d="M285.29,247.07A5.81,5.81,0,0,0,288,249.2a13.71,13.71,0,0,0,3.41.77,24.12,24.12,0,0,0,4.16.21" transform="translate(-3.22 -36.27)"/><path class="cls-8" d="M285.75,248.71a9.48,9.48,0,0,0,4.27,2.1,22.42,22.42,0,0,0,4.77.45" transform="translate(-3.22 -36.27)"/><path class="cls-6" d="M258,191.55c-11.12,19.35-23.09,36.87-30.19,58l-2.11-1.12c.54-19.64,6.91-48.2,15.27-66" transform="translate(-3.22 -36.27)"/><path class="cls-9" d="M252.51,171.35A29.21,29.21,0,0,0,245,175a25.49,25.49,0,0,0-8.65,10.43,47.46,47.46,0,0,0-3.72,13.15,34.81,34.81,0,0,0,10,3,52.52,52.52,0,0,0,11,0" transform="translate(-3.22 -36.27)"/><path class="cls-9" d="M244.22,182.78c-1.18,20.92-.28,42.45.25,62.8,0,0,7.3,1.94,25,1.94s29.22-5.38,29.22-5.38c-3.42-20.92-6.14-46.58-14.52-63.8,0,0-9.46-10.2-18.79-10.62a12.11,12.11,0,0,0-5.53,1.43c-1.32.61-7.37,2.09-7.37,2.09Z" transform="translate(-3.22 -36.27)"/><path class="cls-10" d="M244.12,184.65c-.46,4-.46,16.44-.46,16.44" transform="translate(-3.22 -36.27)"/><path class="cls-11" d="M261.75,252.17c29.62-3.29,42,34.25,48.79,48.81,15.94,34.42,76.08,30.58,103.49,30.58,35.89,0,51.65,12.1,34.89,18.44" transform="translate(-3.22 -36.27)"/><path class="cls-12" d="M272,253.86c0,15.24-11.53,24.43-21.38,24.43H234.41V229.43h16.17C260.43,229.43,272,238.63,272,253.86Z" transform="translate(-3.22 -36.27)"/><path class="cls-13" d="M263.63,253.86c0,14.89-8.81,27-19.69,27H226.11V226.91h17.83C254.82,226.91,263.63,239,263.63,253.86Z" transform="translate(-3.22 -36.27)"/><path class="cls-14" d="M267.58,239.14c-3.85,5.25-7.62,10.57-11.26,16a2.68,2.68,0,0,0,1.37-.72c0,.4-.64,1.1-.07,1.36s1.17-.4,1.77-.22c.56-.13,1.08-.83,1.49-1.24a3.25,3.25,0,0,0-.25.95c3.93-1.53,7.45-5.2,10.51-8.15A24.49,24.49,0,0,0,267.58,239.14Z" transform="translate(-3.22 -36.27)"/><ellipse class="cls-15" cx="224.16" cy="217.59" rx="19.69" ry="26.95"/><path class="cls-13" d="M229,263.41c0,2.22-1.52,4-3.38,4s-3.38-1.79-3.38-4,1.52-4,3.38-4S229,261.2,229,263.41Z" transform="translate(-3.22 -36.27)"/><path class="cls-13" d="M229,244.31c0,2.21-1.52,4-3.38,4s-3.38-1.8-3.38-4,1.52-4,3.38-4S229,242.1,229,244.31Z" transform="translate(-3.22 -36.27)"/><path class="cls-6" d="M289.59,198.22s1.25,12.74-4.45,23.32c-4.87,9.06-14.54,20.78-22.35,27.23l-1.88-.45c2.72-10.44,11.31-29,11.84-35.92s.4-15,.53-18.86" transform="translate(-3.22 -36.27)"/><path class="cls-9" d="M265.41,167.72s10.48.72,16.56,5.85c8.68,7.34,10,21.69,10,25-2.63,2.84-8.36,3-12.54,3a14.39,14.39,0,0,1-7.23-2l-.85-15.83" transform="translate(-3.22 -36.27)"/><path class="cls-6" d="M261.67,246.77a6.56,6.56,0,0,0-3.35,1.48c-.92.71-2,1.91-1.93,2.46s1.63-.53,1.82-.31-2.58,4.39-2.06,4.71,2.87-3.47,2.87-3.47-2.28,4-1.4,4.12,2.76-3.74,2.76-3.74-1.71,3.41-1.13,3.54,2.18-3.27,2.18-3.27-1.3,2.91-.8,3a6.07,6.07,0,0,0,2.06-3.17c.52-1.72,1.13-3.22.66-4.56" transform="translate(-3.22 -36.27)"/><line class="cls-10" x1="269.39" y1="149.13" x2="269.39" y2="163.55"/><path class="cls-5" d="M243.7,154.41c-.06.63-.08,1.25-.08,1.88a6.82,6.82,0,0,0,1,3.9,4.15,4.15,0,0,0,2.25,1.58c.64.17,1.47.1,1.75-.5a1.81,1.81,0,0,0,.1-.69,18.47,18.47,0,0,0-1.33-6.81" transform="translate(-3.22 -36.27)"/><path class="cls-6" d="M259.51,155.72c-.9-3.5-3.73-8.41-8.33-7.42a8.38,8.38,0,0,0-6.4,5.34c-1,3.29.63,7.12,2.6,9.8A8,8,0,0,0,250.1,166c2.66,1.38,6.26.25,8.07-2.05A9.46,9.46,0,0,0,259.51,155.72Z" transform="translate(-3.22 -36.27)"/><path class="cls-6" d="M253.06,164.89l1.5,5.49-2.05,1a5,5,0,0,0,4.65,1.63c6.28-.91,8.25-5.26,8.25-5.26l-3.54-.37L258,160.66" transform="translate(-3.22 -36.27)"/><path class="cls-5" d="M262.57,151.9a8.79,8.79,0,0,0-4.25-5.72c-3.71-2.26-9-2.44-12.31.67-1.88,1.77-5.27,8-1.22,9.29,1.26.39,2.57-.38,3.67-1.12l3.36-2.24a2.65,2.65,0,0,1,1.31-.57,2,2,0,0,1,1.73,1.4,18,18,0,0,1,.49,2.32,2.22,2.22,0,0,0,.84,1.4,1,1,0,0,0,1.46-.29,2.77,2.77,0,0,0,0-1.15c0-.39.21-.87.6-.85a.73.73,0,0,1,.37.16c1,.76.66,2.29,1,3.48,0,.16-.29,2.58-.18,2.7C262.59,160.66,262.89,153.63,262.57,151.9Z" transform="translate(-3.22 -36.27)"/><path class="cls-6" d="M258,155.35a.86.86,0,0,1,.8-.9,1.73,1.73,0,0,1,1.23.46,2.72,2.72,0,0,1,1,2,3,3,0,0,1-.56,1.68,1.77,1.77,0,0,1-.9.79,1.42,1.42,0,0,1-1.41-.45" transform="translate(-3.22 -36.27)"/><path class="cls-5" d="M146.6,343.6s6.74,1.13,6.93,2.61c.1.85-9.45,1.86-10.1,1.36-1-.8.23-3.79.23-3.79Z" transform="translate(-3.22 -36.27)"/><path class="cls-6" d="M146.06,339.47l.55,4.26a1.31,1.31,0,0,1-1.1.92,2,2,0,0,1-1.7-.55l-.8-5.33" transform="translate(-3.22 -36.27)"/><path class="cls-7" d="M120.85,242.33c-1.2,10.49-1.27,15.53,3.42,22.71,2.22,10.15,5.63,20.54,8.21,30.93-1.11,12.4,6.67,32.16,10.85,46.28l3-.52c4.06-25.4,5.56-64.36,1.91-98.46" transform="translate(-3.22 -36.27)"/><path class="cls-8" d="M122.82,256.54s11.6,36.83,11.6,38.83.32,8.88.83,13.34c.95,8.16,8.35,32.23,8.35,32.23" transform="translate(-3.22 -36.27)"/><polygon class="cls-16" points="140.02 306.54 139.55 304.7 143.45 304.56 143.5 306.25 140.02 306.54"/><path class="cls-5" d="M94.16,343.81s5.27,3.82,4.8,5.16c-.26.77-8.85-2.41-9.19-3.11-.54-1.13,1.81-3.14,1.81-3.14Z" transform="translate(-3.22 -36.27)"/><path class="cls-6" d="M95.45,340.06l-1.33,3.87a1.26,1.26,0,0,1-1.33.32,1.91,1.91,0,0,1-1.22-1.2l1.57-4.87" transform="translate(-3.22 -36.27)"/><path class="cls-7" d="M98.19,240.15c-3.21,10-2.62,15.31.59,23.26.19,9.53.29,19.17.4,28.81-6.79,17-7.86,32.23-7,48.4l3.28,1.22s19.49-34,23.07-47.4a221.86,221.86,0,0,0,7.07-47.32" transform="translate(-3.22 -36.27)"/><path class="cls-8" d="M99,242.33s-3.54,10.38,1.11,20.38c0,2.79,1.6,26,1,29.58-.3,1.72-3.48,9.92-5.61,17.91-2.36,8.83-2.85,29.66-2.85,29.66" transform="translate(-3.22 -36.27)"/><polygon class="cls-16" points="88.35 304.35 88.87 302.16 93.06 304.11 92.23 305.98 88.35 304.35"/><path class="cls-17" d="M152.7,162.49l-2.63-2.24v-4.64c0-.72-1-5.05-1.86-5.05s-1.08-1.08-1.52-.64.36,5.33,0,5.69-.82-2.32-1.16-2-.36,2.3-.36,3.3a6.73,6.73,0,0,0,1.6,3.66c.8.79,4.32,4.6,4.32,4.6Z" transform="translate(-3.22 -36.27)"/><path class="cls-9" d="M151.38,161l-2.19,2.5s8.67,11.48,11.41,15.32a46.52,46.52,0,0,1-8.18-4.44c-4.07-2.67-8.16-4.09-11-4.09-6,0-2.86,19.79,4.1,22.69,13.22,2,28,.73,30.3-3.92C179.19,182.18,159.82,166,151.38,161Z" transform="translate(-3.22 -36.27)"/><path class="cls-10" d="M160.6,178.82s1.66,4.61,4.59,6.12" transform="translate(-3.22 -36.27)"/><path class="cls-9" d="M111.09,175.53c-15.76,17.69-15.52,48.11-15.52,68.78,0,0,11.57,7.9,29.23,7.9s25-4.35,25-4.35c.53-21-3.21-30,.25-64.64,0,0-5.64-12.93-8.64-12.93s-14.76-1.16-14.76-1.16Z" transform="translate(-3.22 -36.27)"/><path class="cls-10" d="M149.2,193.44s.36-6.05,1.83-7.52" transform="translate(-3.22 -36.27)"/><path class="cls-6" d="M131.88,155.86c.58-3.57,3.13-8.67,7.8-8.09,2.93.36,5.2,2.39,6.84,4.76,1.41,2,.88,4-1.13,9.13a13.16,13.16,0,0,1-3.08,3.61c-2.53,1.61-6.21.8-8.22-1.33A9.58,9.58,0,0,1,131.88,155.86Z" transform="translate(-3.22 -36.27)"/><path class="cls-5" d="M132.5,155.43c.67-.1,0-.54.3.07.19.39.25.51.63.63s.38.47.69.7c.49.37.9-.13,1.11-.54a4.72,4.72,0,0,0,.27-2.55c-.07-.65-.29-1.7.36-2.15s1.69.17,2.23.32c.84.24,1.67.52,2.51.77a15,15,0,0,0,6.25.87,6.06,6.06,0,0,0,4.64-2.93c1.07-2.06-1.06-4.74-3.22-4.74a8,8,0,0,0-1.66.34,1.3,1.3,0,0,1-.62,0c-.47-.14-.68-.67-1-1.09a3.57,3.57,0,0,0-3.58-1.47A29.51,29.51,0,0,0,137,145a9.39,9.39,0,0,1-2.31,0,2.47,2.47,0,0,0-2.06,1.34c-.65-.68-2.11,1-2.47,1.44-1.6,1.94-2.1,4.74-2.15,7.19,0,2.15.32,5.28,2.68,6.14,1,.37,1.62.56,1.66-.35a15.15,15.15,0,0,1-.63-3.62,1.92,1.92,0,0,1,.88-2" transform="translate(-3.22 -36.27)"/><path class="cls-6" d="M140.17,164.39l-.52,5.4,1.78.5a5,5,0,0,1-4,2.83c-6.29.84-10.73-4-10.73-4l2.1-.41,3.17-10" transform="translate(-3.22 -36.27)"/><path class="cls-6" d="M133.55,155.39a.87.87,0,0,0-.87-.83,1.74,1.74,0,0,0-1.18.58c-1.76,1.75.45,6,2.18,3.81" transform="translate(-3.22 -36.27)"/><path class="cls-5" d="M145.4,161.57c-.28.66-1.39.92-2,1-2.95.33-5.41-1.59-8.24-1.94a1.51,1.51,0,0,0-2.06,1.76,18.88,18.88,0,0,0,0,2,3.87,3.87,0,0,0,.46,1.64c1.28,2.13,5.54,2.49,7.71,2.35a4.51,4.51,0,0,0,2.47-.74c1-.73,1.18-2,1.54-3.14A6.21,6.21,0,0,0,145.4,161.57Z" transform="translate(-3.22 -36.27)"/><path class="cls-6" d="M143.3,163.89a.58.58,0,0,0-.31-.11,27.55,27.55,0,0,1-3.23-.42,1.4,1.4,0,0,0-.54,0,1.12,1.12,0,0,0-.69.9.77.77,0,0,0,.47.86,5,5,0,0,0,2.07.45,3,3,0,0,0,2-.34C143.31,165,143.74,164.2,143.3,163.89Z" transform="translate(-3.22 -36.27)"/><path class="cls-11" d="M130.3,242c-34.42-1.8-54.45,16-68.68,48.31-18.47,42-44.28,45.33-55.9,45.1" transform="translate(-3.22 -36.27)"/><path class="cls-12" d="M117.09,244.78c1.27,15.18,13.53,23.39,23.35,22.57l16.1-1.35-4.06-48.69-16.11,1.35C126.55,219.48,115.83,229.6,117.09,244.78Z" transform="translate(-3.22 -36.27)"/><path class="cls-13" d="M125.39,244.09c1.24,14.83,11,26.13,21.87,25.22L165,267.83l-4.48-53.72-17.78,1.48C131.94,216.49,124.16,229.25,125.39,244.09Z" transform="translate(-3.22 -36.27)"/><ellipse class="cls-15" cx="161.52" cy="241.07" rx="19.69" ry="26.95" transform="translate(-22.7 -22.01) rotate(-4.77)"/><path class="cls-12" d="M160.67,250.73c.19,2.2,1.84,3.87,3.7,3.71s3.22-2.07,3-4.27-1.84-3.87-3.69-3.71S160.49,248.53,160.67,250.73Z" transform="translate(-3.22 -36.27)"/><path class="cls-12" d="M159.09,231.69c.18,2.21,1.84,3.87,3.69,3.71s3.22-2.06,3-4.27-1.83-3.87-3.69-3.71S158.9,229.49,159.09,231.69Z" transform="translate(-3.22 -36.27)"/><path class="cls-18" d="M163,234.19l25.12-2.1a2.8,2.8,0,0,0,2.54-3h0a2.79,2.79,0,0,0-3-2.57l-25.12,2.09C160.62,228.74,161,234.36,163,234.19Z" transform="translate(-3.22 -36.27)"/><path class="cls-18" d="M164.6,253.23l25.12-2.1a2.8,2.8,0,0,0,2.54-3h0a2.81,2.81,0,0,0-3-2.58l-25.12,2.1C162.21,247.78,162.57,253.39,164.6,253.23Z" transform="translate(-3.22 -36.27)"/><path class="cls-6" d="M102.69,198.22s-1.24,12.74,4.45,23.32c4.87,9.06,14.54,20.78,22.35,27.23l1.88-.45c-2.72-10.44-11.3-29-11.84-35.92s-.4-15-.53-18.86" transform="translate(-3.22 -36.27)"/><path class="cls-9" d="M126.67,169.13s-11,.63-17.39,5.43c-11,8.3-8.83,30.57-5.63,41.46s18.57,27.23,23.54,30.75c.81,0,3.2-.21,3.11-2.08-2.74-8.49-10.57-30.82-10.57-30.82L121,183.74" transform="translate(-3.22 -36.27)"/><path class="cls-6" d="M130.61,246.77a6.56,6.56,0,0,1,3.35,1.48c.92.71,2,1.91,1.93,2.46s-1.63-.53-1.82-.31,2.58,4.39,2.06,4.71-2.87-3.47-2.87-3.47,2.28,4,1.4,4.12S131.9,252,131.9,252s1.71,3.41,1.13,3.54-2.17-3.27-2.17-3.27,1.29,2.91.79,3a6.07,6.07,0,0,1-2.06-3.17c-.52-1.72-1.13-3.22-.66-4.56" transform="translate(-3.22 -36.27)"/><path class="cls-10" d="M122.82,222.74c-1.76-5.07-3.09-8.87-3.09-8.87l2.32-25.29" transform="translate(-3.22 -36.27)"/><path class="cls-10" d="M101.13,194.72c-.07,6.86.76,15.31,2.52,21.3,1.54,5.24,5.9,11.74,10.56,17.47" transform="translate(-3.22 -36.27)"/><path class="cls-6" d="M337.28,157.48l1.77-1.21a29.88,29.88,0,0,1,1.28-4.56,11,11,0,0,1,2.43-3c.43-.29,2.41-1.41,2.91-.91.25.24-.59,2.48-1,2.86s-1.51,2.1-1.33,2.63,1.11-.63,1.33-.86.52-.49.62-.21c.18.48-.82,3.17-1.6,3.95a5,5,0,0,1-2.93,1.52L338,160.18" transform="translate(-3.22 -36.27)"/><path class="cls-5" d="M358.67,144.76a12.56,12.56,0,0,1,5.45,8.25,3.51,3.51,0,0,0,.64,1.66,3.57,3.57,0,0,0,1.22.73,10.07,10.07,0,0,1,5.15,5.86c.36,1.08.08,2.6.5,3.52.53,1.13,2.44,1.39,3.47,1.73a7.86,7.86,0,0,1,.16,14.87,4.87,4.87,0,0,1,.56,4.08,9.69,9.69,0,0,1-2.16,3.63,20.08,20.08,0,0,1-15.73,6.49,14.89,14.89,0,0,1-4.95-1,20.09,20.09,0,0,1-4.82-3.09,15.09,15.09,0,0,1-4.57-5.11c-1-2.1-.91-4.84.74-6.46a5,5,0,0,1-5-2.25,7.32,7.32,0,0,1-.84-5.61,14.07,14.07,0,0,1,2.59-5.17,7.9,7.9,0,0,0,1.93-3.55c.29-2.25-1-4.27-1.3-6.51-.51-3.5-.35-6.5,2.64-8.36,1-2.48,2.12-4.4,4.88-5.14A12.17,12.17,0,0,1,358.67,144.76Z" transform="translate(-3.22 -36.27)"/><path class="cls-9" d="M351.47,171.3c-10-2.61-21.39,1.52-23.94,1.5,3.49-3.48,9.89-11.24,12.1-13.92a2.45,2.45,0,0,0-1.12-2.36s-27.36,14.15-24.61,23.39c2.87,9.65,29.67,4.91,31.81,7.68" transform="translate(-3.22 -36.27)"/><path class="cls-6" d="M353.43,261.1c0,.81-3.61,18.38-3.87,20.26-.76,5.49,2.14,11,1.85,19.51-.34,10.34-4.74,38.15-5.3,39.39s-3.24.1-3.24.1-7.73-37.3-8.17-52.57c-.36-12.57,1.47-39.78,1.47-39.78" transform="translate(-3.22 -36.27)"/><path class="cls-5" d="M346.39,340.73a4.35,4.35,0,0,1,.42,1.37c-.05,1.16-.09,1.95-.09,1.95l-.5,0-.18-.95a8.11,8.11,0,0,0-2.7,1.13,9.75,9.75,0,0,1-4.48.13.67.67,0,0,1-.22-1.07c.19-.23,3.78-1.79,3.78-1.79" transform="translate(-3.22 -36.27)"/><path class="cls-6" d="M342.87,340.36c-.29.7-3.12,2.24-2.86,2.45a6.56,6.56,0,0,0,3.73-.39c1.67-.56,2.61-1.18,2.66-1.61l-.31-1.17" transform="translate(-3.22 -36.27)"/><path class="cls-6" d="M378.25,261.83c0,.81-3,18.48-3.24,20.37-.6,5.51,2.46,10.93,2.44,19.44,0,10.35-3.58,38.28-4.1,39.53s-3.24.2-3.24.2-8.86-37.05-9.76-52.29c-.75-12.56.25-39.81.25-39.81" transform="translate(-3.22 -36.27)"/><path class="cls-5" d="M373.64,341.64a4.43,4.43,0,0,1,.47,1.36c0,1.16,0,1.95,0,1.95l-.51.05-.2-.94a7.84,7.84,0,0,0-2.66,1.21,9.7,9.7,0,0,1-4.48.26.67.67,0,0,1-.25-1.06c.18-.23,3.72-1.9,3.72-1.9" transform="translate(-3.22 -36.27)"/><path class="cls-6" d="M370.11,341.37c-.26.71-3.05,2.34-2.78,2.54a6.63,6.63,0,0,0,3.72-.5c1.65-.61,2.57-1.26,2.61-1.69l-.35-1.17" transform="translate(-3.22 -36.27)"/><path class="cls-7" d="M369.23,216.65s7.93,5.19,10.95,17.65c4.07,16.79-1.93,49.68-1.93,49.68a101.45,101.45,0,0,1-25.92,3.52c-13.5-.12-21.5-4.68-21.53-5.5s-2-25.71.73-42.61c3.08-19,10.93-24.07,10.93-24.07" transform="translate(-3.22 -36.27)"/><path class="cls-9" d="M358.48,171c1.23-.45,4.42.66,10.39,3,2.62,2.84,3.77,9,4.34,14.56-1.55,13.39-3.28,20.7-2.45,25.23.2,1.07,1.18,1.88,1,3.37-.32,3.09-5.38,3.56-15,4.65s-18.24-3.27-17.72-4.64,2.15-2.55,2.41-3.45,1.05-12.38,0-13.74-3.72-5.28-3.72-9.1c0-5.37,3-7.78,4.89-10.73,3.23-4.92,5.68-8,8.8-8.78C356.47,170.07,358.48,171,358.48,171Z" transform="translate(-3.22 -36.27)"/><path class="cls-10" d="M342.32,177.77a7,7,0,0,1-.82,4.23c-.36.59-2.54,2.81-3,4.23" transform="translate(-3.22 -36.27)"/><path class="cls-6" d="M356.19,164.45c2.62-2.61,3-7.55,1.84-10.88-1.34-3.76-6.7-6.58-10.38-4.22C340.41,154,347.75,172.82,356.19,164.45Z" transform="translate(-3.22 -36.27)"/><path class="cls-6" d="M351.2,164l.13,8s-.3,1.78,2.85,1.89c4.3.16,4.3-2.94,4.3-2.94L356,162.7" transform="translate(-3.22 -36.27)"/><path class="cls-5" d="M354.46,145.8a2.44,2.44,0,0,0-2.75-.07,18.81,18.81,0,0,1-1.55,1.15,9.45,9.45,0,0,1-1.37.34,7.78,7.78,0,0,0-5,4.15c-.89,2-.61,5.26,1.05,6.69a10,10,0,0,1,1.22-5.09A2.25,2.25,0,0,1,348,151.7c.9.1,1.4,1.07,2,1.71a6.42,6.42,0,0,0,3.72,1.35c1.48.22,2.63.49,3.36,1.94a9.86,9.86,0,0,1,.66,2,14,14,0,0,1,.45,2.48,6.19,6.19,0,0,0,.16,1.55,3.44,3.44,0,0,0,2.33,1.92c.76.26,2,.5,2.51-.36a8.91,8.91,0,0,0,.88-2.54,11.38,11.38,0,0,0-1.86-7.82c-1.59-2.54-3.87-4.25-5.92-6.36A12.63,12.63,0,0,0,354.46,145.8Z" transform="translate(-3.22 -36.27)"/><path class="cls-6" d="M356.47,158.17a1.75,1.75,0,0,1,1.25-1.34c2-.31,1.73,2.75.94,3.82-.46.63-1.65,1.45-2.19-.29" transform="translate(-3.22 -36.27)"/><path class="cls-6" d="M378.19,220.75l-1,2.06s-3.63.87-4,1.51c-.61,1-1.53,2.4-1.53,3.2s.08,4.28,1.08,4.28c.62,0,2.08-2.84,2.39-3.24.71-.94,3.58-1.62,3.58-4.1l1.76-3.71" transform="translate(-3.22 -36.27)"/><path class="cls-9" d="M358.48,170.88s8.48-2.16,15.11,2c5.15,3.25,18.39,19.42,18.4,28.67,0,6.24-12.4,21.71-12.4,21.71l-2-1.47s1.2-12.16,4.8-18.85c-2.66-2.66-13-10.91-15.62-13.51" transform="translate(-3.22 -36.27)"/><path class="cls-10" d="M365.38,188.6c1.85,1.64,6.73,5.57,6.73,5.57" transform="translate(-3.22 -36.27)"/><path class="cls-9" d="M115.74,156.21,106.82,149a8.61,8.61,0,0,1-1.28-1c.35.44,0,.36.3-.43a32.33,32.33,0,0,0,1-5.62c.66-4.89,1.13-11-1.62-15.38-1.75-2.79-5.06-4.8-7.89-6.3a44.84,44.84,0,0,0-11.31-4.17c-7.28-1.64-15.34-1.5-22,2.26C57.62,122,53.5,128.66,51.44,135.64S48.9,151,53.52,157.09c3.74,4.88,9.64,7.18,15.48,8.32a58.6,58.6,0,0,0,21.77.29,24.81,24.81,0,0,0,8.71-3.09c3-1.91,3.19-5.08,4.08-8.28l-.61.35,12.3,2.36c.63.12.9-.84.27-1l-12.31-2.36a.5.5,0,0,0-.61.35c-.73,2.6-.82,5.7-3.2,7.4a19.53,19.53,0,0,1-6.48,2.73,49.59,49.59,0,0,1-14.82,1.27c-10.14-.46-23.16-3-26.38-14.29-3.33-11.72,3.19-27.42,14.25-32.69,6.13-2.92,13.3-2.91,19.81-1.44,6.13,1.39,13.08,4,17.51,8.66,3.33,3.48,3.24,9.13,2.87,13.62a50.88,50.88,0,0,1-1.5,8.84.49.49,0,0,0,.13.49L115,156.91C115.53,157.31,116.24,156.61,115.74,156.21Z" transform="translate(-3.22 -36.27)"/><text class="cls-19" transform="translate(54.75 110.63)">Oops!</text><text class="cls-20" transform="translate(169.47 19.69)">ERROR 404</text></g></g></svg>
