<?xml version="1.0" encoding="utf-8"?>
<!-- Generator: Adobe Illustrator 23.0.3, SVG Export Plug-In . SVG Version: 6.00 Build 0)  -->
<svg version="1.1" xmlns="http://www.w3.org/2000/svg" xmlns:xlink="http://www.w3.org/1999/xlink" x="0px" y="0px"
	 viewBox="0 0 1500 500" style="enable-background:new 0 0 1500 500;" xml:space="preserve">
<style type="text/css">
	.st0{fill:#2F2483;}
	.st1{fill:#403BA1;}
	.st2{fill:#5353BA;}
	.st3{fill:#92B4FF;}
	.st4{fill:#5C8DE5;}
	.st5{fill:#FFFFFF;}
	.st6{fill:#C0CEFF;}
	.st7{fill:#E0E4FF;}
	.st8{fill:#2F2485;}
	.st9{fill:#EFB865;}
	.st10{fill:#3F496A;}
	.st11{fill:#4A50C8;}
	.st12{fill:#403BA3;}
	.st13{fill:#E6934E;}
	.st14{fill:#FFDBB0;}
</style>
<g id="BACKGROUND">
	<rect class="st0" width="1500" height="500"/>
	<polygon class="st1" points="538.58,0 515.65,0 196.19,319.46 219.12,319.46 	"/>
	<polygon class="st1" points="647.24,0 620.73,0 352.86,267.86 379.38,267.86 	"/>
	<polygon class="st1" points="309.94,310.78 120.72,500 147.24,500 336.46,310.78 	"/>
	<polygon class="st1" points="85.05,202.34 0,287.4 0,418.19 215.85,202.34 	"/>
	<polygon class="st1" points="418.19,0 287.4,0 136.1,151.29 266.9,151.29 	"/>
	<polygon class="st1" points="0,0 0,113.89 113.89,0 	"/>
	<polygon class="st1" points="181.87,0 152.78,0 53.71,99.07 82.8,99.07 	"/>
	<polygon class="st2" points="177.97,168.82 148.88,168.82 49.81,267.88 78.9,267.88 	"/>
	<polygon class="st2" points="225.73,298.72 207.06,298.72 101.15,404.62 119.83,404.62 	"/>
	<polygon class="st2" points="505.09,123.77 486.41,123.77 380.51,229.67 399.19,229.67 	"/>
	<polygon class="st2" points="284.74,344.13 266.07,344.13 126.64,483.56 145.31,483.56 	"/>
	<polygon class="st2" points="1046.6,274.41 1027.92,274.41 888.49,413.84 907.16,413.84 	"/>
	<polygon class="st2" points="129.16,364.73 119.82,364.73 45.97,438.58 55.31,438.58 	"/>
	<polygon class="st2" points="344.43,199.08 335.1,199.08 261.25,272.93 270.58,272.93 	"/>
	<polygon class="st2" points="90.28,37.31 57.94,37.31 15.35,79.9 47.69,79.9 	"/>
	<polygon class="st2" points="362.11,75.89 312.48,75.89 143.51,244.87 193.13,244.87 	"/>
	<polygon class="st1" points="761.25,0 261.25,500 366.23,500 866.23,0 	"/>
	<polygon class="st2" points="437.59,338.73 408.5,338.73 309.43,437.8 338.52,437.8 	"/>
	<polygon class="st2" points="831.59,400.93 802.5,400.93 703.43,500 732.52,500 	"/>
	<polygon class="st2" points="728.47,47.85 699.38,47.85 520.03,227.2 549.12,227.2 	"/>
	<polygon class="st1" points="1281.05,0 1053.44,0 754.72,298.72 982.33,298.72 	"/>
	<polygon class="st1" points="1407.58,0 1358.1,0 1282.92,75.18 1332.4,75.18 	"/>
	<polygon class="st1" points="1242.58,165 1193.1,165 1108.1,250 1157.58,250 	"/>
	<polygon class="st1" points="1000.1,358 858.1,500 907.58,500 1049.58,358 	"/>
	<polygon class="st1" points="933,0 906,0 509.99,396.01 536.99,396.01 	"/>
	<polygon class="st1" points="1500,500 1500,292.02 1292.02,500 	"/>
	<polygon class="st1" points="1075.18,500 1180.17,500 1425.17,255 1320.18,255 	"/>
	<polygon class="st1" points="1469.21,0 1437.88,0 1130.88,307 1162.21,307 	"/>
	<polygon class="st2" points="865.01,219.94 784.85,219.94 597.99,406.8 678.14,406.8 	"/>
	<polygon class="st2" points="1029.99,33.24 1011.32,33.24 967.54,77.02 986.22,77.02 	"/>
	<polygon class="st2" points="1378.75,100.55 1360.08,100.55 1254.18,206.45 1272.85,206.45 	"/>
	<polygon class="st2" points="1250.18,119.28 1221.08,119.28 1122.02,218.35 1151.11,218.35 	"/>
	<polygon class="st2" points="1385.27,202.34 1356.18,202.34 1176.82,381.7 1205.92,381.7 	"/>
	<polygon class="st2" points="1461.57,126.05 1432.47,126.05 1394.72,163.8 1423.81,163.8 	"/>
	<polygon class="st2" points="1464.43,344.13 1428.49,344.13 1306.11,466.5 1342.05,466.5 	"/>
	<polygon class="st2" points="1201.07,0 1182.4,0 1042.96,139.43 1061.64,139.43 	"/>
	<polygon class="st2" points="1147.54,79.64 1138.2,79.64 868.92,348.92 878.26,348.92 	"/>
</g>
<g id="OBJECTS">
	<g>
		<g>
			<path class="st3" d="M429.19,248.98c0,2.38-1.93,4.31-4.31,4.31s-4.31-1.93-4.31-4.31c0-2.38,1.93-4.31,4.31-4.31
				S429.19,246.6,429.19,248.98z"/>
			<path class="st3" d="M452.65,248.98c0,2.38-1.93,4.31-4.31,4.31s-4.31-1.93-4.31-4.31c0-2.38,1.93-4.31,4.31-4.31
				S452.65,246.6,452.65,248.98z"/>
			<path class="st3" d="M476.11,248.98c0,2.38-1.93,4.31-4.31,4.31c-2.38,0-4.31-1.93-4.31-4.31c0-2.38,1.93-4.31,4.31-4.31
				C474.18,244.67,476.11,246.6,476.11,248.98z"/>
			<path class="st3" d="M499.58,248.98c0,2.38-1.93,4.31-4.31,4.31c-2.38,0-4.31-1.93-4.31-4.31c0-2.38,1.93-4.31,4.31-4.31
				C497.64,244.67,499.58,246.6,499.58,248.98z"/>
			<path class="st3" d="M523.04,248.98c0,2.38-1.93,4.31-4.31,4.31c-2.38,0-4.31-1.93-4.31-4.31c0-2.38,1.93-4.31,4.31-4.31
				C521.11,244.67,523.04,246.6,523.04,248.98z"/>
			<path class="st3" d="M546.5,248.98c0,2.38-1.93,4.31-4.31,4.31c-2.38,0-4.31-1.93-4.31-4.31c0-2.38,1.93-4.31,4.31-4.31
				C544.57,244.67,546.5,246.6,546.5,248.98z"/>
			<path class="st3" d="M569.96,248.98c0,2.38-1.93,4.31-4.31,4.31c-2.38,0-4.31-1.93-4.31-4.31c0-2.38,1.93-4.31,4.31-4.31
				C568.03,244.67,569.96,246.6,569.96,248.98z"/>
			<path class="st3" d="M593.42,248.98c0,2.38-1.93,4.31-4.31,4.31c-2.38,0-4.31-1.93-4.31-4.31c0-2.38,1.93-4.31,4.31-4.31
				C591.49,244.67,593.42,246.6,593.42,248.98z"/>
			<path class="st3" d="M429.19,270.69c0,2.38-1.93,4.31-4.31,4.31s-4.31-1.93-4.31-4.31s1.93-4.31,4.31-4.31
				S429.19,268.31,429.19,270.69z"/>
			<path class="st3" d="M452.65,270.69c0,2.38-1.93,4.31-4.31,4.31s-4.31-1.93-4.31-4.31s1.93-4.31,4.31-4.31
				S452.65,268.31,452.65,270.69z"/>
			<path class="st3" d="M476.11,270.69c0,2.38-1.93,4.31-4.31,4.31c-2.38,0-4.31-1.93-4.31-4.31s1.93-4.31,4.31-4.31
				C474.18,266.38,476.11,268.31,476.11,270.69z"/>
			<path class="st3" d="M499.58,270.69c0,2.38-1.93,4.31-4.31,4.31c-2.38,0-4.31-1.93-4.31-4.31s1.93-4.31,4.31-4.31
				C497.64,266.38,499.58,268.31,499.58,270.69z"/>
			<path class="st3" d="M523.04,270.69c0,2.38-1.93,4.31-4.31,4.31c-2.38,0-4.31-1.93-4.31-4.31s1.93-4.31,4.31-4.31
				C521.11,266.38,523.04,268.31,523.04,270.69z"/>
			<path class="st3" d="M546.5,270.69c0,2.38-1.93,4.31-4.31,4.31c-2.38,0-4.31-1.93-4.31-4.31s1.93-4.31,4.31-4.31
				C544.57,266.38,546.5,268.31,546.5,270.69z"/>
			<path class="st3" d="M569.96,270.69c0,2.38-1.93,4.31-4.31,4.31c-2.38,0-4.31-1.93-4.31-4.31s1.93-4.31,4.31-4.31
				C568.03,266.38,569.96,268.31,569.96,270.69z"/>
			<path class="st3" d="M593.42,270.69c0,2.38-1.93,4.31-4.31,4.31c-2.38,0-4.31-1.93-4.31-4.31s1.93-4.31,4.31-4.31
				C591.49,266.38,593.42,268.31,593.42,270.69z"/>
			<path class="st3" d="M429.19,292.4c0,2.38-1.93,4.31-4.31,4.31s-4.31-1.93-4.31-4.31s1.93-4.31,4.31-4.31
				S429.19,290.02,429.19,292.4z"/>
			<path class="st3" d="M452.65,292.4c0,2.38-1.93,4.31-4.31,4.31s-4.31-1.93-4.31-4.31s1.93-4.31,4.31-4.31
				S452.65,290.02,452.65,292.4z"/>
			<path class="st3" d="M476.11,292.4c0,2.38-1.93,4.31-4.31,4.31c-2.38,0-4.31-1.93-4.31-4.31s1.93-4.31,4.31-4.31
				C474.18,288.09,476.11,290.02,476.11,292.4z"/>
			<path class="st3" d="M499.58,292.4c0,2.38-1.93,4.31-4.31,4.31c-2.38,0-4.31-1.93-4.31-4.31s1.93-4.31,4.31-4.31
				C497.64,288.09,499.58,290.02,499.58,292.4z"/>
			<path class="st3" d="M523.04,292.4c0,2.38-1.93,4.31-4.31,4.31c-2.38,0-4.31-1.93-4.31-4.31s1.93-4.31,4.31-4.31
				C521.11,288.09,523.04,290.02,523.04,292.4z"/>
			<path class="st3" d="M546.5,292.4c0,2.38-1.93,4.31-4.31,4.31c-2.38,0-4.31-1.93-4.31-4.31s1.93-4.31,4.31-4.31
				C544.57,288.09,546.5,290.02,546.5,292.4z"/>
			<path class="st3" d="M569.96,292.4c0,2.38-1.93,4.31-4.31,4.31c-2.38,0-4.31-1.93-4.31-4.31s1.93-4.31,4.31-4.31
				C568.03,288.09,569.96,290.02,569.96,292.4z"/>
			<path class="st3" d="M593.42,292.4c0,2.38-1.93,4.31-4.31,4.31c-2.38,0-4.31-1.93-4.31-4.31s1.93-4.31,4.31-4.31
				C591.49,288.09,593.42,290.02,593.42,292.4z"/>
			<path class="st3" d="M429.19,314.11c0,2.38-1.93,4.31-4.31,4.31s-4.31-1.93-4.31-4.31c0-2.38,1.93-4.31,4.31-4.31
				S429.19,311.73,429.19,314.11z"/>
			<path class="st3" d="M452.65,314.11c0,2.38-1.93,4.31-4.31,4.31s-4.31-1.93-4.31-4.31c0-2.38,1.93-4.31,4.31-4.31
				S452.65,311.73,452.65,314.11z"/>
			<path class="st3" d="M476.11,314.11c0,2.38-1.93,4.31-4.31,4.31c-2.38,0-4.31-1.93-4.31-4.31c0-2.38,1.93-4.31,4.31-4.31
				C474.18,309.8,476.11,311.73,476.11,314.11z"/>
			<path class="st3" d="M499.58,314.11c0,2.38-1.93,4.31-4.31,4.31c-2.38,0-4.31-1.93-4.31-4.31c0-2.38,1.93-4.31,4.31-4.31
				C497.64,309.8,499.58,311.73,499.58,314.11z"/>
			<path class="st3" d="M523.04,314.11c0,2.38-1.93,4.31-4.31,4.31c-2.38,0-4.31-1.93-4.31-4.31c0-2.38,1.93-4.31,4.31-4.31
				C521.11,309.8,523.04,311.73,523.04,314.11z"/>
			<path class="st3" d="M546.5,314.11c0,2.38-1.93,4.31-4.31,4.31c-2.38,0-4.31-1.93-4.31-4.31c0-2.38,1.93-4.31,4.31-4.31
				C544.57,309.8,546.5,311.73,546.5,314.11z"/>
			<path class="st3" d="M569.96,314.11c0,2.38-1.93,4.31-4.31,4.31c-2.38,0-4.31-1.93-4.31-4.31c0-2.38,1.93-4.31,4.31-4.31
				C568.03,309.8,569.96,311.73,569.96,314.11z"/>
			<path class="st3" d="M593.42,314.11c0,2.38-1.93,4.31-4.31,4.31c-2.38,0-4.31-1.93-4.31-4.31c0-2.38,1.93-4.31,4.31-4.31
				C591.49,309.8,593.42,311.73,593.42,314.11z"/>
			<path class="st3" d="M429.19,335.82c0,2.38-1.93,4.31-4.31,4.31s-4.31-1.93-4.31-4.31c0-2.38,1.93-4.31,4.31-4.31
				S429.19,333.44,429.19,335.82z"/>
			<path class="st3" d="M452.65,335.82c0,2.38-1.93,4.31-4.31,4.31s-4.31-1.93-4.31-4.31c0-2.38,1.93-4.31,4.31-4.31
				S452.65,333.44,452.65,335.82z"/>
			<path class="st3" d="M476.11,335.82c0,2.38-1.93,4.31-4.31,4.31c-2.38,0-4.31-1.93-4.31-4.31c0-2.38,1.93-4.31,4.31-4.31
				C474.18,331.5,476.11,333.44,476.11,335.82z"/>
			<path class="st3" d="M499.58,335.82c0,2.38-1.93,4.31-4.31,4.31c-2.38,0-4.31-1.93-4.31-4.31c0-2.38,1.93-4.31,4.31-4.31
				C497.64,331.5,499.58,333.44,499.58,335.82z"/>
			<path class="st3" d="M523.04,335.82c0,2.38-1.93,4.31-4.31,4.31c-2.38,0-4.31-1.93-4.31-4.31c0-2.38,1.93-4.31,4.31-4.31
				C521.11,331.5,523.04,333.44,523.04,335.82z"/>
			<path class="st3" d="M546.5,335.82c0,2.38-1.93,4.31-4.31,4.31c-2.38,0-4.31-1.93-4.31-4.31c0-2.38,1.93-4.31,4.31-4.31
				C544.57,331.5,546.5,333.44,546.5,335.82z"/>
			<path class="st3" d="M569.96,335.82c0,2.38-1.93,4.31-4.31,4.31c-2.38,0-4.31-1.93-4.31-4.31c0-2.38,1.93-4.31,4.31-4.31
				C568.03,331.5,569.96,333.44,569.96,335.82z"/>
			<path class="st3" d="M593.42,335.82c0,2.38-1.93,4.31-4.31,4.31c-2.38,0-4.31-1.93-4.31-4.31c0-2.38,1.93-4.31,4.31-4.31
				C591.49,331.5,593.42,333.44,593.42,335.82z"/>
			<path class="st3" d="M429.19,357.53c0,2.38-1.93,4.31-4.31,4.31s-4.31-1.93-4.31-4.31c0-2.38,1.93-4.31,4.31-4.31
				S429.19,355.15,429.19,357.53z"/>
			<path class="st3" d="M452.65,357.53c0,2.38-1.93,4.31-4.31,4.31s-4.31-1.93-4.31-4.31c0-2.38,1.93-4.31,4.31-4.31
				S452.65,355.15,452.65,357.53z"/>
			<path class="st3" d="M476.11,357.53c0,2.38-1.93,4.31-4.31,4.31c-2.38,0-4.31-1.93-4.31-4.31c0-2.38,1.93-4.31,4.31-4.31
				C474.18,353.21,476.11,355.15,476.11,357.53z"/>
			<path class="st3" d="M499.58,357.53c0,2.38-1.93,4.31-4.31,4.31c-2.38,0-4.31-1.93-4.31-4.31c0-2.38,1.93-4.31,4.31-4.31
				C497.64,353.21,499.58,355.15,499.58,357.53z"/>
			<path class="st3" d="M523.04,357.53c0,2.38-1.93,4.31-4.31,4.31c-2.38,0-4.31-1.93-4.31-4.31c0-2.38,1.93-4.31,4.31-4.31
				C521.11,353.21,523.04,355.15,523.04,357.53z"/>
			<path class="st3" d="M546.5,357.53c0,2.38-1.93,4.31-4.31,4.31c-2.38,0-4.31-1.93-4.31-4.31c0-2.38,1.93-4.31,4.31-4.31
				C544.57,353.21,546.5,355.15,546.5,357.53z"/>
			<path class="st3" d="M569.96,357.53c0,2.38-1.93,4.31-4.31,4.31c-2.38,0-4.31-1.93-4.31-4.31c0-2.38,1.93-4.31,4.31-4.31
				C568.03,353.21,569.96,355.15,569.96,357.53z"/>
			<path class="st3" d="M593.42,357.53c0,2.38-1.93,4.31-4.31,4.31c-2.38,0-4.31-1.93-4.31-4.31c0-2.38,1.93-4.31,4.31-4.31
				C591.49,353.21,593.42,355.15,593.42,357.53z"/>
			<path class="st3" d="M429.19,379.24c0,2.38-1.93,4.31-4.31,4.31s-4.31-1.93-4.31-4.31c0-2.38,1.93-4.31,4.31-4.31
				S429.19,376.85,429.19,379.24z"/>
			<path class="st3" d="M452.65,379.24c0,2.38-1.93,4.31-4.31,4.31s-4.31-1.93-4.31-4.31c0-2.38,1.93-4.31,4.31-4.31
				S452.65,376.85,452.65,379.24z"/>
			<path class="st3" d="M476.11,379.24c0,2.38-1.93,4.31-4.31,4.31c-2.38,0-4.31-1.93-4.31-4.31c0-2.38,1.93-4.31,4.31-4.31
				C474.18,374.92,476.11,376.85,476.11,379.24z"/>
			<path class="st3" d="M499.58,379.24c0,2.38-1.93,4.31-4.31,4.31c-2.38,0-4.31-1.93-4.31-4.31c0-2.38,1.93-4.31,4.31-4.31
				C497.64,374.92,499.58,376.85,499.58,379.24z"/>
			<path class="st3" d="M523.04,379.24c0,2.38-1.93,4.31-4.31,4.31c-2.38,0-4.31-1.93-4.31-4.31c0-2.38,1.93-4.31,4.31-4.31
				C521.11,374.92,523.04,376.85,523.04,379.24z"/>
			<path class="st3" d="M546.5,379.24c0,2.38-1.93,4.31-4.31,4.31c-2.38,0-4.31-1.93-4.31-4.31c0-2.38,1.93-4.31,4.31-4.31
				C544.57,374.92,546.5,376.85,546.5,379.24z"/>
			<path class="st3" d="M569.96,379.24c0,2.38-1.93,4.31-4.31,4.31c-2.38,0-4.31-1.93-4.31-4.31c0-2.38,1.93-4.31,4.31-4.31
				C568.03,374.92,569.96,376.85,569.96,379.24z"/>
			<path class="st3" d="M593.42,379.24c0,2.38-1.93,4.31-4.31,4.31c-2.38,0-4.31-1.93-4.31-4.31c0-2.38,1.93-4.31,4.31-4.31
				C591.49,374.92,593.42,376.85,593.42,379.24z"/>
			<path class="st3" d="M429.19,400.95c0,2.38-1.93,4.31-4.31,4.31s-4.31-1.93-4.31-4.31s1.93-4.31,4.31-4.31
				S429.19,398.56,429.19,400.95z"/>
			<path class="st3" d="M452.65,400.95c0,2.38-1.93,4.31-4.31,4.31s-4.31-1.93-4.31-4.31s1.93-4.31,4.31-4.31
				S452.65,398.56,452.65,400.95z"/>
			<path class="st3" d="M476.11,400.95c0,2.38-1.93,4.31-4.31,4.31c-2.38,0-4.31-1.93-4.31-4.31s1.93-4.31,4.31-4.31
				C474.18,396.63,476.11,398.56,476.11,400.95z"/>
			<path class="st3" d="M499.58,400.95c0,2.38-1.93,4.31-4.31,4.31c-2.38,0-4.31-1.93-4.31-4.31s1.93-4.31,4.31-4.31
				C497.64,396.63,499.58,398.56,499.58,400.95z"/>
			<path class="st3" d="M523.04,400.95c0,2.38-1.93,4.31-4.31,4.31c-2.38,0-4.31-1.93-4.31-4.31s1.93-4.31,4.31-4.31
				C521.11,396.63,523.04,398.56,523.04,400.95z"/>
			<path class="st3" d="M546.5,400.95c0,2.38-1.93,4.31-4.31,4.31c-2.38,0-4.31-1.93-4.31-4.31s1.93-4.31,4.31-4.31
				C544.57,396.63,546.5,398.56,546.5,400.95z"/>
			<path class="st3" d="M569.96,400.95c0,2.38-1.93,4.31-4.31,4.31c-2.38,0-4.31-1.93-4.31-4.31s1.93-4.31,4.31-4.31
				C568.03,396.63,569.96,398.56,569.96,400.95z"/>
			<path class="st3" d="M593.42,400.95c0,2.38-1.93,4.31-4.31,4.31c-2.38,0-4.31-1.93-4.31-4.31s1.93-4.31,4.31-4.31
				C591.49,396.63,593.42,398.56,593.42,400.95z"/>
			<circle class="st3" cx="424.88" cy="422.66" r="4.31"/>
			<path class="st3" d="M452.65,422.66c0,2.38-1.93,4.31-4.31,4.31s-4.31-1.93-4.31-4.31s1.93-4.31,4.31-4.31
				S452.65,420.27,452.65,422.66z"/>
			<path class="st3" d="M476.11,422.66c0,2.38-1.93,4.31-4.31,4.31c-2.38,0-4.31-1.93-4.31-4.31s1.93-4.31,4.31-4.31
				C474.18,418.34,476.11,420.27,476.11,422.66z"/>
			<path class="st3" d="M499.58,422.66c0,2.38-1.93,4.31-4.31,4.31c-2.38,0-4.31-1.93-4.31-4.31s1.93-4.31,4.31-4.31
				C497.64,418.34,499.58,420.27,499.58,422.66z"/>
			<path class="st3" d="M523.04,422.66c0,2.38-1.93,4.31-4.31,4.31c-2.38,0-4.31-1.93-4.31-4.31s1.93-4.31,4.31-4.31
				C521.11,418.34,523.04,420.27,523.04,422.66z"/>
			<path class="st3" d="M546.5,422.66c0,2.38-1.93,4.31-4.31,4.31c-2.38,0-4.31-1.93-4.31-4.31s1.93-4.31,4.31-4.31
				C544.57,418.34,546.5,420.27,546.5,422.66z"/>
			<path class="st3" d="M569.96,422.66c0,2.38-1.93,4.31-4.31,4.31c-2.38,0-4.31-1.93-4.31-4.31s1.93-4.31,4.31-4.31
				C568.03,418.34,569.96,420.27,569.96,422.66z"/>
			<circle class="st3" cx="589.11" cy="422.66" r="4.31"/>
			<path class="st3" d="M429.19,444.37c0,2.38-1.93,4.31-4.31,4.31s-4.31-1.93-4.31-4.31c0-2.38,1.93-4.31,4.31-4.31
				S429.19,441.98,429.19,444.37z"/>
			<path class="st3" d="M452.65,444.37c0,2.38-1.93,4.31-4.31,4.31s-4.31-1.93-4.31-4.31c0-2.38,1.93-4.31,4.31-4.31
				S452.65,441.98,452.65,444.37z"/>
			<path class="st3" d="M476.11,444.37c0,2.38-1.93,4.31-4.31,4.31c-2.38,0-4.31-1.93-4.31-4.31c0-2.38,1.93-4.31,4.31-4.31
				C474.18,440.05,476.11,441.98,476.11,444.37z"/>
			<path class="st3" d="M499.58,444.37c0,2.38-1.93,4.31-4.31,4.31c-2.38,0-4.31-1.93-4.31-4.31c0-2.38,1.93-4.31,4.31-4.31
				C497.64,440.05,499.58,441.98,499.58,444.37z"/>
			<path class="st3" d="M523.04,444.37c0,2.38-1.93,4.31-4.31,4.31c-2.38,0-4.31-1.93-4.31-4.31c0-2.38,1.93-4.31,4.31-4.31
				C521.11,440.05,523.04,441.98,523.04,444.37z"/>
			<path class="st3" d="M546.5,444.37c0,2.38-1.93,4.31-4.31,4.31c-2.38,0-4.31-1.93-4.31-4.31c0-2.38,1.93-4.31,4.31-4.31
				C544.57,440.05,546.5,441.98,546.5,444.37z"/>
			<path class="st3" d="M569.96,444.37c0,2.38-1.93,4.31-4.31,4.31c-2.38,0-4.31-1.93-4.31-4.31c0-2.38,1.93-4.31,4.31-4.31
				C568.03,440.05,569.96,441.98,569.96,444.37z"/>
			<path class="st3" d="M593.42,444.37c0,2.38-1.93,4.31-4.31,4.31c-2.38,0-4.31-1.93-4.31-4.31c0-2.38,1.93-4.31,4.31-4.31
				C591.49,440.05,593.42,441.98,593.42,444.37z"/>
		</g>
		<g>
			<path class="st3" d="M915.21,55.63c0,2.38-1.93,4.31-4.31,4.31c-2.38,0-4.31-1.93-4.31-4.31c0-2.38,1.93-4.31,4.31-4.31
				C913.27,51.32,915.21,53.25,915.21,55.63z"/>
			<path class="st3" d="M938.67,55.63c0,2.38-1.93,4.31-4.31,4.31c-2.38,0-4.31-1.93-4.31-4.31c0-2.38,1.93-4.31,4.31-4.31
				C936.74,51.32,938.67,53.25,938.67,55.63z"/>
			<path class="st3" d="M962.13,55.63c0,2.38-1.93,4.31-4.31,4.31c-2.38,0-4.31-1.93-4.31-4.31c0-2.38,1.93-4.31,4.31-4.31
				C960.2,51.32,962.13,53.25,962.13,55.63z"/>
			<path class="st3" d="M985.59,55.63c0,2.38-1.93,4.31-4.31,4.31c-2.38,0-4.31-1.93-4.31-4.31c0-2.38,1.93-4.31,4.31-4.31
				C983.66,51.32,985.59,53.25,985.59,55.63z"/>
			<path class="st3" d="M1009.05,55.63c0,2.38-1.93,4.31-4.31,4.31c-2.38,0-4.31-1.93-4.31-4.31c0-2.38,1.93-4.31,4.31-4.31
				C1007.12,51.32,1009.05,53.25,1009.05,55.63z"/>
			<path class="st3" d="M1032.51,55.63c0,2.38-1.93,4.31-4.31,4.31s-4.31-1.93-4.31-4.31c0-2.38,1.93-4.31,4.31-4.31
				S1032.51,53.25,1032.51,55.63z"/>
			<path class="st3" d="M1055.98,55.63c0,2.38-1.93,4.31-4.31,4.31s-4.31-1.93-4.31-4.31c0-2.38,1.93-4.31,4.31-4.31
				S1055.98,53.25,1055.98,55.63z"/>
			<path class="st3" d="M1079.44,55.63c0,2.38-1.93,4.31-4.31,4.31c-2.38,0-4.31-1.93-4.31-4.31c0-2.38,1.93-4.31,4.31-4.31
				C1077.51,51.32,1079.44,53.25,1079.44,55.63z"/>
			<circle class="st3" cx="910.89" cy="77.34" r="4.31"/>
			<path class="st3" d="M938.67,77.34c0,2.38-1.93,4.31-4.31,4.31c-2.38,0-4.31-1.93-4.31-4.31c0-2.38,1.93-4.31,4.31-4.31
				C936.74,73.03,938.67,74.96,938.67,77.34z"/>
			<path class="st3" d="M962.13,77.34c0,2.38-1.93,4.31-4.31,4.31c-2.38,0-4.31-1.93-4.31-4.31c0-2.38,1.93-4.31,4.31-4.31
				C960.2,73.03,962.13,74.96,962.13,77.34z"/>
			<path class="st3" d="M985.59,77.34c0,2.38-1.93,4.31-4.31,4.31c-2.38,0-4.31-1.93-4.31-4.31c0-2.38,1.93-4.31,4.31-4.31
				C983.66,73.03,985.59,74.96,985.59,77.34z"/>
			<circle class="st3" cx="1004.74" cy="77.34" r="4.31"/>
			<path class="st3" d="M1032.51,77.34c0,2.38-1.93,4.31-4.31,4.31s-4.31-1.93-4.31-4.31c0-2.38,1.93-4.31,4.31-4.31
				S1032.51,74.96,1032.51,77.34z"/>
			<path class="st3" d="M1055.98,77.34c0,2.38-1.93,4.31-4.31,4.31s-4.31-1.93-4.31-4.31c0-2.38,1.93-4.31,4.31-4.31
				S1055.98,74.96,1055.98,77.34z"/>
			<circle class="st3" cx="1075.12" cy="77.34" r="4.31"/>
			<path class="st3" d="M915.21,99.05c0,2.38-1.93,4.31-4.31,4.31c-2.38,0-4.31-1.93-4.31-4.31c0-2.38,1.93-4.31,4.31-4.31
				C913.27,94.74,915.21,96.67,915.21,99.05z"/>
			<path class="st3" d="M938.67,99.05c0,2.38-1.93,4.31-4.31,4.31c-2.38,0-4.31-1.93-4.31-4.31c0-2.38,1.93-4.31,4.31-4.31
				C936.74,94.74,938.67,96.67,938.67,99.05z"/>
			<path class="st3" d="M962.13,99.05c0,2.38-1.93,4.31-4.31,4.31c-2.38,0-4.31-1.93-4.31-4.31c0-2.38,1.93-4.31,4.31-4.31
				C960.2,94.74,962.13,96.67,962.13,99.05z"/>
			<path class="st3" d="M985.59,99.05c0,2.38-1.93,4.31-4.31,4.31c-2.38,0-4.31-1.93-4.31-4.31c0-2.38,1.93-4.31,4.31-4.31
				C983.66,94.74,985.59,96.67,985.59,99.05z"/>
			<path class="st3" d="M1009.05,99.05c0,2.38-1.93,4.31-4.31,4.31c-2.38,0-4.31-1.93-4.31-4.31c0-2.38,1.93-4.31,4.31-4.31
				C1007.12,94.74,1009.05,96.67,1009.05,99.05z"/>
			<path class="st3" d="M1032.51,99.05c0,2.38-1.93,4.31-4.31,4.31s-4.31-1.93-4.31-4.31c0-2.38,1.93-4.31,4.31-4.31
				S1032.51,96.67,1032.51,99.05z"/>
			<path class="st3" d="M1055.98,99.05c0,2.38-1.93,4.31-4.31,4.31s-4.31-1.93-4.31-4.31c0-2.38,1.93-4.31,4.31-4.31
				S1055.98,96.67,1055.98,99.05z"/>
			<path class="st3" d="M1079.44,99.05c0,2.38-1.93,4.31-4.31,4.31c-2.38,0-4.31-1.93-4.31-4.31c0-2.38,1.93-4.31,4.31-4.31
				C1077.51,94.74,1079.44,96.67,1079.44,99.05z"/>
			<path class="st3" d="M915.21,120.76c0,2.38-1.93,4.31-4.31,4.31c-2.38,0-4.31-1.93-4.31-4.31c0-2.38,1.93-4.31,4.31-4.31
				C913.27,116.45,915.21,118.38,915.21,120.76z"/>
			<path class="st3" d="M938.67,120.76c0,2.38-1.93,4.31-4.31,4.31c-2.38,0-4.31-1.93-4.31-4.31c0-2.38,1.93-4.31,4.31-4.31
				C936.74,116.45,938.67,118.38,938.67,120.76z"/>
			<path class="st3" d="M962.13,120.76c0,2.38-1.93,4.31-4.31,4.31c-2.38,0-4.31-1.93-4.31-4.31c0-2.38,1.93-4.31,4.31-4.31
				C960.2,116.45,962.13,118.38,962.13,120.76z"/>
			<path class="st3" d="M985.59,120.76c0,2.38-1.93,4.31-4.31,4.31c-2.38,0-4.31-1.93-4.31-4.31c0-2.38,1.93-4.31,4.31-4.31
				C983.66,116.45,985.59,118.38,985.59,120.76z"/>
			<path class="st3" d="M1009.05,120.76c0,2.38-1.93,4.31-4.31,4.31c-2.38,0-4.31-1.93-4.31-4.31c0-2.38,1.93-4.31,4.31-4.31
				C1007.12,116.45,1009.05,118.38,1009.05,120.76z"/>
			<path class="st3" d="M1032.51,120.76c0,2.38-1.93,4.31-4.31,4.31s-4.31-1.93-4.31-4.31c0-2.38,1.93-4.31,4.31-4.31
				S1032.51,118.38,1032.51,120.76z"/>
			<path class="st3" d="M1055.98,120.76c0,2.38-1.93,4.31-4.31,4.31s-4.31-1.93-4.31-4.31c0-2.38,1.93-4.31,4.31-4.31
				S1055.98,118.38,1055.98,120.76z"/>
			<path class="st3" d="M1079.44,120.76c0,2.38-1.93,4.31-4.31,4.31c-2.38,0-4.31-1.93-4.31-4.31c0-2.38,1.93-4.31,4.31-4.31
				C1077.51,116.45,1079.44,118.38,1079.44,120.76z"/>
			<path class="st3" d="M915.21,142.47c0,2.38-1.93,4.31-4.31,4.31c-2.38,0-4.31-1.93-4.31-4.31s1.93-4.31,4.31-4.31
				C913.27,138.16,915.21,140.09,915.21,142.47z"/>
			<path class="st3" d="M938.67,142.47c0,2.38-1.93,4.31-4.31,4.31c-2.38,0-4.31-1.93-4.31-4.31s1.93-4.31,4.31-4.31
				C936.74,138.16,938.67,140.09,938.67,142.47z"/>
			<path class="st3" d="M962.13,142.47c0,2.38-1.93,4.31-4.31,4.31c-2.38,0-4.31-1.93-4.31-4.31s1.93-4.31,4.31-4.31
				C960.2,138.16,962.13,140.09,962.13,142.47z"/>
			<path class="st3" d="M985.59,142.47c0,2.38-1.93,4.31-4.31,4.31c-2.38,0-4.31-1.93-4.31-4.31s1.93-4.31,4.31-4.31
				C983.66,138.16,985.59,140.09,985.59,142.47z"/>
			<path class="st3" d="M1009.05,142.47c0,2.38-1.93,4.31-4.31,4.31c-2.38,0-4.31-1.93-4.31-4.31s1.93-4.31,4.31-4.31
				C1007.12,138.16,1009.05,140.09,1009.05,142.47z"/>
			<path class="st3" d="M1032.51,142.47c0,2.38-1.93,4.31-4.31,4.31s-4.31-1.93-4.31-4.31s1.93-4.31,4.31-4.31
				S1032.51,140.09,1032.51,142.47z"/>
			<path class="st3" d="M1055.98,142.47c0,2.38-1.93,4.31-4.31,4.31s-4.31-1.93-4.31-4.31s1.93-4.31,4.31-4.31
				S1055.98,140.09,1055.98,142.47z"/>
			<path class="st3" d="M1079.44,142.47c0,2.38-1.93,4.31-4.31,4.31c-2.38,0-4.31-1.93-4.31-4.31s1.93-4.31,4.31-4.31
				C1077.51,138.16,1079.44,140.09,1079.44,142.47z"/>
			<path class="st3" d="M915.21,164.18c0,2.38-1.93,4.31-4.31,4.31c-2.38,0-4.31-1.93-4.31-4.31s1.93-4.31,4.31-4.31
				C913.27,159.87,915.21,161.8,915.21,164.18z"/>
			<path class="st3" d="M938.67,164.18c0,2.38-1.93,4.31-4.31,4.31c-2.38,0-4.31-1.93-4.31-4.31s1.93-4.31,4.31-4.31
				C936.74,159.87,938.67,161.8,938.67,164.18z"/>
			<path class="st3" d="M962.13,164.18c0,2.38-1.93,4.31-4.31,4.31c-2.38,0-4.31-1.93-4.31-4.31s1.93-4.31,4.31-4.31
				C960.2,159.87,962.13,161.8,962.13,164.18z"/>
			<path class="st3" d="M985.59,164.18c0,2.38-1.93,4.31-4.31,4.31c-2.38,0-4.31-1.93-4.31-4.31s1.93-4.31,4.31-4.31
				C983.66,159.87,985.59,161.8,985.59,164.18z"/>
			<path class="st3" d="M1009.05,164.18c0,2.38-1.93,4.31-4.31,4.31c-2.38,0-4.31-1.93-4.31-4.31s1.93-4.31,4.31-4.31
				C1007.12,159.87,1009.05,161.8,1009.05,164.18z"/>
			<path class="st3" d="M1032.51,164.18c0,2.38-1.93,4.31-4.31,4.31s-4.31-1.93-4.31-4.31s1.93-4.31,4.31-4.31
				S1032.51,161.8,1032.51,164.18z"/>
			<path class="st3" d="M1055.98,164.18c0,2.38-1.93,4.31-4.31,4.31s-4.31-1.93-4.31-4.31s1.93-4.31,4.31-4.31
				S1055.98,161.8,1055.98,164.18z"/>
			<path class="st3" d="M1079.44,164.18c0,2.38-1.93,4.31-4.31,4.31c-2.38,0-4.31-1.93-4.31-4.31s1.93-4.31,4.31-4.31
				C1077.51,159.87,1079.44,161.8,1079.44,164.18z"/>
			<path class="st3" d="M915.21,185.89c0,2.38-1.93,4.31-4.31,4.31c-2.38,0-4.31-1.93-4.31-4.31c0-2.38,1.93-4.31,4.31-4.31
				C913.27,181.58,915.21,183.51,915.21,185.89z"/>
			<path class="st3" d="M938.67,185.89c0,2.38-1.93,4.31-4.31,4.31c-2.38,0-4.31-1.93-4.31-4.31c0-2.38,1.93-4.31,4.31-4.31
				C936.74,181.58,938.67,183.51,938.67,185.89z"/>
			<path class="st3" d="M962.13,185.89c0,2.38-1.93,4.31-4.31,4.31c-2.38,0-4.31-1.93-4.31-4.31c0-2.38,1.93-4.31,4.31-4.31
				C960.2,181.58,962.13,183.51,962.13,185.89z"/>
			<path class="st3" d="M985.59,185.89c0,2.38-1.93,4.31-4.31,4.31c-2.38,0-4.31-1.93-4.31-4.31c0-2.38,1.93-4.31,4.31-4.31
				C983.66,181.58,985.59,183.51,985.59,185.89z"/>
			<path class="st3" d="M1009.05,185.89c0,2.38-1.93,4.31-4.31,4.31c-2.38,0-4.31-1.93-4.31-4.31c0-2.38,1.93-4.31,4.31-4.31
				C1007.12,181.58,1009.05,183.51,1009.05,185.89z"/>
			<path class="st3" d="M1032.51,185.89c0,2.38-1.93,4.31-4.31,4.31s-4.31-1.93-4.31-4.31c0-2.38,1.93-4.31,4.31-4.31
				S1032.51,183.51,1032.51,185.89z"/>
			<path class="st3" d="M1055.98,185.89c0,2.38-1.93,4.31-4.31,4.31s-4.31-1.93-4.31-4.31c0-2.38,1.93-4.31,4.31-4.31
				S1055.98,183.51,1055.98,185.89z"/>
			<path class="st3" d="M1079.44,185.89c0,2.38-1.93,4.31-4.31,4.31c-2.38,0-4.31-1.93-4.31-4.31c0-2.38,1.93-4.31,4.31-4.31
				C1077.51,181.58,1079.44,183.51,1079.44,185.89z"/>
			<path class="st3" d="M915.21,207.6c0,2.38-1.93,4.31-4.31,4.31c-2.38,0-4.31-1.93-4.31-4.31c0-2.38,1.93-4.31,4.31-4.31
				C913.27,203.28,915.21,205.22,915.21,207.6z"/>
			<path class="st3" d="M938.67,207.6c0,2.38-1.93,4.31-4.31,4.31c-2.38,0-4.31-1.93-4.31-4.31c0-2.38,1.93-4.31,4.31-4.31
				C936.74,203.28,938.67,205.22,938.67,207.6z"/>
			<path class="st3" d="M962.13,207.6c0,2.38-1.93,4.31-4.31,4.31c-2.38,0-4.31-1.93-4.31-4.31c0-2.38,1.93-4.31,4.31-4.31
				C960.2,203.28,962.13,205.22,962.13,207.6z"/>
			<path class="st3" d="M985.59,207.6c0,2.38-1.93,4.31-4.31,4.31c-2.38,0-4.31-1.93-4.31-4.31c0-2.38,1.93-4.31,4.31-4.31
				C983.66,203.28,985.59,205.22,985.59,207.6z"/>
			<path class="st3" d="M1009.05,207.6c0,2.38-1.93,4.31-4.31,4.31c-2.38,0-4.31-1.93-4.31-4.31c0-2.38,1.93-4.31,4.31-4.31
				C1007.12,203.28,1009.05,205.22,1009.05,207.6z"/>
			<path class="st3" d="M1032.51,207.6c0,2.38-1.93,4.31-4.31,4.31s-4.31-1.93-4.31-4.31c0-2.38,1.93-4.31,4.31-4.31
				S1032.51,205.22,1032.51,207.6z"/>
			<path class="st3" d="M1055.98,207.6c0,2.38-1.93,4.31-4.31,4.31s-4.31-1.93-4.31-4.31c0-2.38,1.93-4.31,4.31-4.31
				S1055.98,205.22,1055.98,207.6z"/>
			<path class="st3" d="M1079.44,207.6c0,2.38-1.93,4.31-4.31,4.31c-2.38,0-4.31-1.93-4.31-4.31c0-2.38,1.93-4.31,4.31-4.31
				C1077.51,203.28,1079.44,205.22,1079.44,207.6z"/>
			<path class="st3" d="M915.21,229.31c0,2.38-1.93,4.31-4.31,4.31c-2.38,0-4.31-1.93-4.31-4.31s1.93-4.31,4.31-4.31
				C913.27,224.99,915.21,226.93,915.21,229.31z"/>
			<path class="st3" d="M938.67,229.31c0,2.38-1.93,4.31-4.31,4.31c-2.38,0-4.31-1.93-4.31-4.31s1.93-4.31,4.31-4.31
				C936.74,224.99,938.67,226.93,938.67,229.31z"/>
			<path class="st3" d="M962.13,229.31c0,2.38-1.93,4.31-4.31,4.31c-2.38,0-4.31-1.93-4.31-4.31s1.93-4.31,4.31-4.31
				C960.2,224.99,962.13,226.93,962.13,229.31z"/>
			<path class="st3" d="M985.59,229.31c0,2.38-1.93,4.31-4.31,4.31c-2.38,0-4.31-1.93-4.31-4.31s1.93-4.31,4.31-4.31
				C983.66,224.99,985.59,226.93,985.59,229.31z"/>
			<path class="st3" d="M1009.05,229.31c0,2.38-1.93,4.31-4.31,4.31c-2.38,0-4.31-1.93-4.31-4.31s1.93-4.31,4.31-4.31
				C1007.12,224.99,1009.05,226.93,1009.05,229.31z"/>
			<path class="st3" d="M1032.51,229.31c0,2.38-1.93,4.31-4.31,4.31s-4.31-1.93-4.31-4.31s1.93-4.31,4.31-4.31
				S1032.51,226.93,1032.51,229.31z"/>
			<path class="st3" d="M1055.98,229.31c0,2.38-1.93,4.31-4.31,4.31s-4.31-1.93-4.31-4.31s1.93-4.31,4.31-4.31
				S1055.98,226.93,1055.98,229.31z"/>
			<path class="st3" d="M1079.44,229.31c0,2.38-1.93,4.31-4.31,4.31c-2.38,0-4.31-1.93-4.31-4.31s1.93-4.31,4.31-4.31
				C1077.51,224.99,1079.44,226.93,1079.44,229.31z"/>
			<path class="st3" d="M915.21,251.02c0,2.38-1.93,4.31-4.31,4.31c-2.38,0-4.31-1.93-4.31-4.31c0-2.38,1.93-4.31,4.31-4.31
				C913.27,246.7,915.21,248.63,915.21,251.02z"/>
			<path class="st3" d="M938.67,251.02c0,2.38-1.93,4.31-4.31,4.31c-2.38,0-4.31-1.93-4.31-4.31c0-2.38,1.93-4.31,4.31-4.31
				C936.74,246.7,938.67,248.63,938.67,251.02z"/>
			<path class="st3" d="M962.13,251.02c0,2.38-1.93,4.31-4.31,4.31c-2.38,0-4.31-1.93-4.31-4.31c0-2.38,1.93-4.31,4.31-4.31
				C960.2,246.7,962.13,248.63,962.13,251.02z"/>
			<path class="st3" d="M985.59,251.02c0,2.38-1.93,4.31-4.31,4.31c-2.38,0-4.31-1.93-4.31-4.31c0-2.38,1.93-4.31,4.31-4.31
				C983.66,246.7,985.59,248.63,985.59,251.02z"/>
			<path class="st3" d="M1009.05,251.02c0,2.38-1.93,4.31-4.31,4.31c-2.38,0-4.31-1.93-4.31-4.31c0-2.38,1.93-4.31,4.31-4.31
				C1007.12,246.7,1009.05,248.63,1009.05,251.02z"/>
			<path class="st3" d="M1032.51,251.02c0,2.38-1.93,4.31-4.31,4.31s-4.31-1.93-4.31-4.31c0-2.38,1.93-4.31,4.31-4.31
				S1032.51,248.63,1032.51,251.02z"/>
			<path class="st3" d="M1055.98,251.02c0,2.38-1.93,4.31-4.31,4.31s-4.31-1.93-4.31-4.31c0-2.38,1.93-4.31,4.31-4.31
				S1055.98,248.63,1055.98,251.02z"/>
			<path class="st3" d="M1079.44,251.02c0,2.38-1.93,4.31-4.31,4.31c-2.38,0-4.31-1.93-4.31-4.31c0-2.38,1.93-4.31,4.31-4.31
				C1077.51,246.7,1079.44,248.63,1079.44,251.02z"/>
		</g>
	</g>
	<g>
		<circle class="st4" cx="1263.54" cy="290.86" r="161.85"/>
		<path class="st5" d="M1263.54,439.16c-39.61,0-76.85-15.43-104.86-43.43s-43.43-65.25-43.43-104.86
			c0-39.61,15.43-76.85,43.43-104.86c28.01-28.01,65.25-43.43,104.86-43.43c39.61,0,76.85,15.43,104.86,43.43
			s43.43,65.25,43.43,104.86c0,39.61-15.43,76.85-43.43,104.86S1303.15,439.16,1263.54,439.16z"/>
		<g>
			<g>
				<g>
					<path class="st6" d="M1084.54,307.15c-0.44,3.75-0.62,7.47-0.56,11.15l10.3,1.22L1084.54,307.15z"/>
					<path class="st7" d="M1098.19,324.46l1.66-14c-4.9-1.56-10.01-2.69-15.31-3.32l0,0l9.75,12.37l-10.3-1.22
						c0.05,3.11,0.28,6.19,0.69,9.23l17.57,2.08L1098.19,324.46z"/>
					<path class="st3" d="M1119.06,350.94L1119.06,350.94l3.44-29.09c-4.27-3.07-8.86-5.73-13.73-7.95
						c-2.88-1.31-5.86-2.46-8.93-3.44l-1.66,14l4.05,5.14l-17.57-2.08c0.57,4.29,1.48,8.49,2.69,12.57l25.53,3.02L1119.06,350.94z"
						/>
					<path class="st7" d="M1136.92,335.08l-3.97,33.49l-4.71-5.97l-32.66-3.87c2.72,4.53,5.87,8.79,9.4,12.71l33.34,3.95l3.95-33.34
						C1140.62,339.63,1138.83,337.3,1136.92,335.08z"/>
					<path class="st6" d="M1119.06,350.94l9.19,11.66l4.71,5.97l3.97-33.49c-4.24-4.95-9.08-9.4-14.42-13.23L1119.06,350.94
						L1119.06,350.94z"/>
					<path class="st6" d="M1112.89,343.11l-25.53-3.02c0.75,2.52,1.62,4.99,2.61,7.4l29.09,3.44L1112.89,343.11z"/>
					<path class="st6" d="M1148.72,388.56l7.33,9.3l0,0c1.52-12.85-0.03-25.36-4.07-36.78L1148.72,388.56L1148.72,388.56z"/>
					<path class="st3" d="M1119.06,350.94l-29.09-3.44c1.59,3.9,3.47,7.65,5.62,11.24l32.66,3.87L1119.06,350.94z"/>
					<path class="st3" d="M1121.23,385.31c10.17,6.6,21.96,11.03,34.81,12.55l-7.33-9.3L1121.23,385.31z"/>
					<path class="st3" d="M1148.72,388.56L1148.72,388.56l3.25-27.48c-2.4-6.77-5.66-13.17-9.69-19.03l-3.95,33.34L1148.72,388.56z"
						/>
					<path class="st6" d="M1138.33,375.39l-33.34-3.95c4.76,5.28,10.21,9.96,16.24,13.87l27.48,3.25L1138.33,375.39z"/>
				</g>
				<g>
					<path class="st7" d="M1132.87,274.05c-0.32-1.96-0.59-3.93-0.86-5.9c-0.26-1.97-0.55-3.93-0.76-5.91
						c-5.7-4.48-11.34-9.2-16.85-14.14c-2.31,1.84-4.38,4.19-6.08,7.12c-0.86,1.46-1.65,3.07-2.34,4.82
						c-0.67,1.75-1.25,3.66-1.73,5.71c10.18,8.61,20.65,16.48,31.31,23.62l-0.75-3.82l-0.68-3.83
						C1133.67,279.18,1133.27,276.61,1132.87,274.05z"/>
					<path class="st3" d="M1129.43,242.64c-5.57,0.36-10.71,2.02-15.03,5.46c5.51,4.95,11.15,9.66,16.85,14.14
						C1130.44,255.73,1129.9,249.19,1129.43,242.64z"/>
					<path class="st6" d="M1163.09,270c-8.61,10.75-16.7,22.29-24.16,34.57c-0.61-2.52-1.22-5.04-1.76-7.58
						c-0.57-2.53-1.11-5.07-1.6-7.61c-10.67-7.14-21.13-15.01-31.31-23.62c-0.74,3.08-1.14,6.49-1.35,10.27
						c-0.13,3.77-0.04,7.91,0.47,12.38c12.33,9.37,24.99,17.75,37.84,25.13l2.07,7.33l2.22,7.28c6.87-13.24,14.47-25.75,22.68-37.43
						c-0.29-1.76-0.66-3.52-1.01-5.31c-0.57-2.92-1.26-5.65-1.91-8.22c-0.34-1.28-0.7-2.52-1.07-3.72
						C1163.85,272.27,1163.48,271.11,1163.09,270z"/>
					<path class="st6" d="M1132.87,274.05c6.03-8.22,12.31-16.04,18.89-23.45c-6.24-6.05-13.97-8.5-22.33-7.97
						c0.47,6.55,1.01,13.09,1.82,19.61c0.21,1.98,0.5,3.94,0.76,5.91C1132.28,270.12,1132.55,272.09,1132.87,274.05z"/>
					<path class="st3" d="M1135.57,289.37c0.49,2.55,1.03,5.08,1.6,7.61c0.53,2.54,1.15,5.06,1.76,7.58
						c7.47-12.28,15.56-23.82,24.16-34.57c-2.98-8.67-6.81-14.98-11.33-19.39c-6.58,7.41-12.85,15.23-18.89,23.45
						c0.4,2.56,0.79,5.13,1.27,7.67l0.68,3.83L1135.57,289.37z"/>
					<path class="st6" d="M1154.21,352.46l1.07,2.7c5.7-2.33,9.61-7.81,12.05-15.11c2.41-7.31,3.42-16.48,3.18-26.6
						c-6.56,10.98-12.59,22.56-18,34.71L1154.21,352.46z"/>
					<path class="st7" d="M1152.51,348.15c-1.19-3.21-2.42-6.4-3.52-9.64c-13-6.25-25.89-13.46-38.53-21.64
						c2.73,7.03,6.14,13.31,9.75,18.69c11.22,6.35,22.58,11.98,34,16.89L1152.51,348.15z"/>
					<path class="st3" d="M1141.22,313.54c-12.85-7.38-25.51-15.76-37.84-25.13c0.31,3.1,0.87,6.36,1.54,9.79
						c1.37,6.61,3.24,12.88,5.53,18.67c12.64,8.17,25.53,15.39,38.53,21.64c1.1,3.24,2.34,6.43,3.52,9.64
						c5.41-12.14,11.44-23.73,18-34.71c-0.15-7.15-0.93-14.79-2.32-22.72c-8.21,11.69-15.81,24.19-22.68,37.43l-2.22-7.28
						L1141.22,313.54z"/>
					<path class="st3" d="M1120.21,335.56c5.58,8.18,11.89,14.18,17.97,17.55c6.14,3.36,12.02,4.12,17.09,2.05l-1.07-2.7
						C1142.79,347.55,1131.43,341.91,1120.21,335.56z"/>
				</g>
				<g>
					<path class="st6" d="M1067.54,372.73c1.24,2.63,2.63,5.1,4.12,7.47c2.38-1.11,4.79-2.23,7.21-3.3
						C1075.11,375.46,1071.33,374.08,1067.54,372.73z"/>
					<path class="st7" d="M1083.37,378.64c-1.44-3.29-2.91-6.61-4.45-9.89c-3.88,0.89-7.7,2.23-11.38,3.98l0,0
						c3.79,1.35,7.57,2.73,11.33,4.17c-2.42,1.07-4.83,2.19-7.21,3.3c1.26,2.02,2.61,3.91,4.02,5.75c4.07-1.87,8.18-3.67,12.35-5.44
						L1083.37,378.64z"/>
					<path class="st3" d="M1107.14,388.77L1107.14,388.77c-2.59-7.03-5.41-14.01-8.4-21.02c-4.13-0.51-8.31-0.59-12.46-0.2
						c-2.47,0.25-4.91,0.62-7.35,1.2c1.53,3.28,3.01,6.61,4.45,9.89l4.66,1.86c-4.17,1.77-8.28,3.57-12.35,5.44
						c1,1.3,2.04,2.54,3.11,3.73c1.07,1.21,2.18,2.36,3.32,3.47c5.92-2.61,11.94-5.12,18.06-7.5
						C1102.5,386.66,1104.82,387.71,1107.14,388.77z"/>
					<path class="st7" d="M1113.75,371.7c3.23,8.18,6.2,16.34,8.89,24.54c-1.74-0.86-3.47-1.75-5.22-2.59
						c-7.94,2.72-15.74,5.66-23.37,8.78c3.33,2.03,6.81,3.77,10.43,5.19c7.86-2.98,15.89-5.76,24.08-8.34
						c-2.57-8.18-5.4-16.36-8.5-24.55C1118.02,373.6,1115.92,372.57,1113.75,371.7z"/>
					<path class="st6" d="M1107.14,388.77c3.45,1.58,6.87,3.21,10.28,4.87c1.75,0.84,3.48,1.73,5.22,2.59
						c-2.69-8.19-5.66-16.36-8.89-24.54c-4.8-1.98-9.87-3.3-15.02-3.95C1101.73,374.76,1104.54,381.74,1107.14,388.77
						L1107.14,388.77z"/>
					<path class="st6" d="M1100.17,385.64c-6.12,2.38-12.14,4.89-18.06,7.5c1.41,1.36,2.85,2.68,4.36,3.89
						c6.75-2.89,13.66-5.68,20.67-8.26C1104.82,387.71,1102.5,386.66,1100.17,385.64z"/>
					<path class="st6" d="M1139.87,405.39c2.65,1.47,5.26,2.98,7.89,4.49v0c-2.52-9.59-7.52-18.1-14.22-24.91
						C1135.83,391.77,1137.94,398.58,1139.87,405.39L1139.87,405.39z"/>
					<path class="st3" d="M1107.14,388.77c-7.01,2.59-13.91,5.37-20.67,8.26c2.41,1.99,4.95,3.77,7.58,5.39
						c7.63-3.11,15.43-6.06,23.37-8.78C1114.01,391.98,1110.58,390.35,1107.14,388.77z"/>
					<path class="st3" d="M1119.77,411.62c8.94,1.24,18.39,0.78,27.98-1.74c-2.62-1.51-5.24-3.03-7.89-4.49
						C1133.07,407.31,1126.37,409.39,1119.77,411.62z"/>
					<path class="st3" d="M1139.87,405.39L1139.87,405.39c-1.93-6.81-4.04-13.62-6.33-20.42c-3.96-4.06-8.53-7.49-13.48-10.24
						c3.09,8.18,5.93,16.37,8.5,24.55C1132.35,401.27,1136.13,403.29,1139.87,405.39z"/>
					<path class="st6" d="M1128.56,399.27c-8.19,2.57-16.22,5.36-24.08,8.34c4.87,1.92,10,3.25,15.29,4.01
						c6.6-2.23,13.3-4.31,20.1-6.23C1136.13,403.29,1132.35,401.27,1128.56,399.27z"/>
				</g>
				<g>
					<path class="st6" d="M1457.61,386.09c-2.47-1.67-5.02-3.15-7.62-4.43l-4.6,6.79L1457.61,386.09z"/>
					<path class="st7" d="M1440.5,389.39l9.23,6.24c2.87-2.87,5.52-6.05,7.88-9.55l0,0l-12.22,2.36l4.6-6.79
						c-2.21-1.09-4.45-2.05-6.73-2.87l-7.84,11.58L1440.5,389.39z"/>
					<path class="st3" d="M1414.34,394.44L1414.34,394.44l19.18,12.97c3.7-1.89,7.24-4.14,10.56-6.76c1.97-1.55,3.86-3.22,5.65-5.02
						l-9.23-6.24l-5.08,0.98l7.84-11.58c-3.22-1.16-6.5-2.04-9.8-2.67l-11.39,16.83L1414.34,394.44z"/>
					<path class="st7" d="M1418.99,412.73l-22.08-14.94l5.9-1.14l14.57-21.53c-4.17,0.27-8.3,0.93-12.34,1.99l-14.87,21.98
						l21.98,14.87C1414.46,413.68,1416.74,413.27,1418.99,412.73z"/>
					<path class="st6" d="M1414.34,394.44l-11.52,2.22l-5.9,1.14l22.08,14.94c5.02-1.18,9.89-2.97,14.52-5.32L1414.34,394.44
						L1414.34,394.44z"/>
					<path class="st6" d="M1422.07,392.94l11.39-16.83c-2.04-0.39-4.09-0.67-6.14-0.86l-12.97,19.18L1422.07,392.94z"/>
					<path class="st6" d="M1377.16,401.61l-9.19,1.77v0c8.47,5.73,17.82,9.18,27.31,10.49L1377.16,401.61L1377.16,401.61z"/>
					<path class="st3" d="M1414.34,394.44l12.97-19.18c-3.31-0.3-6.63-0.34-9.93-0.13l-14.57,21.53L1414.34,394.44z"/>
					<path class="st3" d="M1389.42,383.49c-8.32,4.75-15.72,11.42-21.45,19.89l9.19-1.77L1389.42,383.49z"/>
					<path class="st3" d="M1377.16,401.61L1377.16,401.61l18.12,12.26c5.63,0.78,11.3,0.8,16.88,0.1l-21.98-14.87L1377.16,401.61z"
						/>
					<path class="st6" d="M1390.18,399.1l14.87-21.98c-5.44,1.43-10.7,3.56-15.63,6.37l-12.26,18.12L1390.18,399.1z"/>
				</g>
				<g>
					<path class="st6" d="M1438.93,331.66c-2.72,0.05-5.38,0.28-7.99,0.69l0.13,7.46L1438.93,331.66z"/>
					<path class="st7" d="M1427.92,343.06l10.13-0.18c0.64-3.64,0.94-7.39,0.88-11.23l0,0l-7.86,8.14l-0.13-7.46
						c-2.21,0.34-4.39,0.8-6.51,1.38l0.22,12.72L1427.92,343.06z"/>
					<path class="st3" d="M1411.09,360.5L1411.09,360.5l21.06-0.37c1.77-3.34,3.22-6.87,4.33-10.55c0.65-2.18,1.18-4.41,1.58-6.69
						l-10.13,0.18l-3.27,3.38l-0.22-12.72c-3,0.82-5.9,1.87-8.69,3.14l0.32,18.48L1411.09,360.5z"/>
					<path class="st7" d="M1424.12,371.68l-24.24,0.42l3.8-3.93l-0.41-23.64c-2.96,2.38-5.69,5.03-8.14,7.93l0.42,24.13l24.13-0.42
						C1421.23,374.76,1422.72,373.26,1424.12,371.68z"/>
					<path class="st6" d="M1411.09,360.5l-7.41,7.68l-3.8,3.93l24.24-0.42c3.11-3.5,5.81-7.38,8.02-11.55L1411.09,360.5
						L1411.09,360.5z"/>
					<path class="st6" d="M1416.06,355.34l-0.32-18.48c-1.72,0.78-3.39,1.64-5.02,2.57l0.37,21.06L1416.06,355.34z"/>
					<path class="st6" d="M1387.16,385.27l-5.91,6.12l0,0c9.3-0.16,18.06-2.48,25.81-6.47L1387.16,385.27L1387.16,385.27z"/>
					<path class="st3" d="M1411.09,360.5l-0.37-21.06c-2.62,1.51-5.11,3.21-7.46,5.09l0.41,23.64L1411.09,360.5z"/>
					<path class="st3" d="M1386.81,365.38c-3.71,7.88-5.73,16.72-5.57,26.02l5.91-6.12L1386.81,365.38z"/>
					<path class="st3" d="M1387.16,385.27L1387.16,385.27l19.9-0.35c4.59-2.36,8.83-5.31,12.62-8.75l-24.13,0.42L1387.16,385.27z"/>
					<path class="st6" d="M1395.54,376.6l-0.42-24.13c-3.3,3.9-6.1,8.24-8.3,12.91l0.35,19.9L1395.54,376.6z"/>
				</g>
				<g>
					<g>
						<path class="st7" d="M1174.92,261c-0.28,0.09-0.59-0.06-0.69-0.34c-6.73-20.21-17.88-38.92-32.33-54.57
							c-0.2-0.22-0.18-0.56,0.04-0.77c0.22-0.2,0.56-0.19,0.76,0.03c14.55,15.76,25.78,34.6,32.56,54.96
							C1175.35,260.61,1175.2,260.91,1174.92,261z"/>
					</g>
					<path class="st3" d="M1125.69,190.25L1125.69,190.25c0.25,2.43,0.93,4.63,1.94,6.6c0.96,2.03,2.33,3.72,3.87,5.23
						c1.56,1.49,3.42,2.67,5.44,3.57c1.02,0.44,2.1,0.78,3.23,1.04c1.11,0.27,2.27,0.45,3.47,0.51l0,0c0.06-1.2-0.01-2.4-0.2-3.56
						c-0.21-1.15-0.55-2.26-0.99-3.33c-0.87-2.17-2.25-4.07-3.92-5.67c-1.65-1.62-3.72-2.79-5.88-3.6
						C1130.44,190.29,1128.06,190,1125.69,190.25z"/>
					<path class="st6" d="M1125.64,214.38L1125.64,214.38c1.47,1.54,3.26,2.61,5.14,3.43c1.91,0.78,4,1.2,6.12,1.3
						c4.29,0.15,8.87-1.04,12.67-4.02l0,0c-1.45-1.92-3.37-3.32-5.34-4.34c-2.03-0.98-4.23-1.48-6.4-1.54
						C1133.39,209.15,1129.05,210.97,1125.64,214.38z"/>
					<path class="st7" d="M1135.81,225.87L1135.81,225.87c0.65,0.84,1.39,1.58,2.19,2.24c0.78,0.67,1.62,1.26,2.53,1.76
						c1.83,0.98,3.81,1.67,5.93,2c4.27,0.62,8.91-0.01,13.04-2.55l0,0c-2.51-4.12-6.67-6.6-11.01-7.17
						C1144.15,221.54,1139.57,222.88,1135.81,225.87z"/>
					<path class="st3" d="M1144.62,238.45L1144.62,238.45c2.26,3.6,5.76,6.01,9.91,7.15c4.13,1.12,8.85,1,13.25-1.05l0,0
						c-0.52-1.08-1.14-2.09-1.83-3.01c-0.71-0.91-1.54-1.71-2.4-2.42c-1.72-1.43-3.76-2.41-5.89-2.95
						C1153.42,235.08,1148.69,235.92,1144.62,238.45z"/>
					<path class="st6" d="M1151.93,251.94L1151.93,251.94c0.95,1.9,2.12,3.59,3.7,4.94c1.51,1.38,3.3,2.49,5.32,3.28
						c3.92,1.61,8.69,2.01,13.27,0.5l0,0c-1.56-4.56-4.96-7.96-9.1-9.48c-2.06-0.77-4.25-1.11-6.49-0.99
						C1156.38,250.33,1154.11,250.92,1151.93,251.94z"/>
					<path class="st7" d="M1151.19,188.97L1151.19,188.97c1.87,1.95,3.35,4.11,4.22,6.45c0.91,2.31,1.32,4.7,1.2,7.05
						c-0.18,4.66-2.4,8.97-6.2,11.95l0,0c-1.46-1.94-2.62-3.95-3.29-6.17c-0.72-2.17-1.07-4.44-1.01-6.74
						C1146.17,196.98,1147.77,192.38,1151.19,188.97z"/>
					<path class="st3" d="M1164.1,203.55L1164.1,203.55c0.83,1.06,1.54,2.18,2.13,3.32c0.57,1.16,1,2.36,1.32,3.55
						c0.66,2.38,0.75,4.84,0.39,7.14c-0.35,2.3-1.19,4.46-2.49,6.37c-1.28,1.9-2.98,3.53-5.03,4.8h0
						c-2.51-4.13-3.42-8.78-2.81-13.31C1158.24,210.91,1160.3,206.56,1164.1,203.55z"/>
					<path class="st6" d="M1175.26,219.5L1175.26,219.5c2.87,4.58,3.48,9.89,2.23,14.36c-1.24,4.5-4.39,8.21-8.75,10.24h0
						c-0.52-1.09-0.92-2.21-1.21-3.35c-0.3-1.13-0.52-2.26-0.62-3.4c-0.18-2.3-0.01-4.59,0.54-6.79
						C1168.62,226.13,1171.14,222.06,1175.26,219.5z"/>
					<path class="st7" d="M1184.55,236.62L1184.55,236.62c1.19,2.42,1.7,5.03,1.83,7.49c0.06,2.49-0.39,4.9-1.24,7.05
						c-1.81,4.36-5.3,7.65-9.88,9.16l0,0c-1.56-4.57-1.3-9.34,0.28-13.6c0.8-2.13,1.99-4.14,3.49-5.88
						C1180.52,239.12,1182.36,237.65,1184.55,236.62z"/>
				</g>
				<g>
					<g>
						<path class="st7" d="M1388.88,336.28c-0.17-0.21-0.14-0.52,0.07-0.69c15.25-12.47,32.4-22.6,50.66-29.99
							c0.25-0.11,0.54,0.02,0.64,0.27c0.1,0.25-0.02,0.55-0.27,0.65c-18.16,7.35-35.23,17.43-50.4,29.84
							C1389.37,336.53,1389.05,336.49,1388.88,336.28z"/>
					</g>
					<path class="st3" d="M1459.54,299.26L1459.54,299.26c-1.93-1.06-4.03-1.67-6.15-1.84c-2.1-0.12-4.25,0.12-6.23,0.84
						c-1.98,0.7-3.84,1.77-5.39,3.23c-1.56,1.42-2.83,3.21-3.67,5.27l0,0C1446.32,310.09,1455.19,306.96,1459.54,299.26z"/>
					<path class="st6" d="M1438.8,288.68L1438.8,288.68c-4.51,1.71-7.87,5.04-9.5,8.96c-1.66,3.9-1.59,8.33,0.3,12.35
						c2-0.98,3.77-2.2,5.21-3.75c1.46-1.51,2.63-3.25,3.47-5.18C1439.96,297.27,1440.35,292.84,1438.8,288.68z"/>
					<path class="st7" d="M1422.81,295.43c-1.09,0.52-2.1,1.12-3.02,1.8c-0.92,0.7-1.75,1.48-2.49,2.31
						c-1.49,1.65-2.56,3.58-3.23,5.59c-1.34,4-0.9,8.46,1.3,12.28l0,0c3.84-2.23,6.55-5.65,7.92-9.6
						C1424.66,303.87,1424.7,299.46,1422.81,295.43z"/>
					<path class="st3" d="M1407.42,303.45c-4.19,2.38-6.94,6.26-7.92,10.37c-1,4.12-0.22,8.5,2.3,12.14
						c1.83-1.26,3.34-2.81,4.54-4.53c1.18-1.75,2.06-3.66,2.58-5.67C1409.94,311.71,1409.63,307.32,1407.42,303.45z"/>
					<path class="st6" d="M1392.73,312.7L1392.73,312.7c-2,1.34-3.57,3.09-4.78,4.94c-1.18,1.89-1.94,3.96-2.28,6.04
						c-0.64,4.22,0.47,8.48,3.29,11.91l0,0c3.45-2.79,5.54-6.65,6.27-10.75C1395.92,320.74,1395.24,316.35,1392.73,312.7z"/>
					<path class="st7" d="M1450.42,319.69L1450.42,319.69c-3.79,1.44-7.86,1.16-11.53-0.37c-3.67-1.57-6.97-4.43-8.86-8.44
						c1.99-0.98,4.13-1.37,6.18-1.42c2.07,0,4.11,0.44,5.95,1.24C1445.89,312.37,1448.87,315.54,1450.42,319.69z"/>
					<path class="st3" d="M1436.91,325.39c-0.92,0.44-1.86,0.76-2.82,0.98c-0.95,0.24-1.92,0.38-2.89,0.42
						c-1.96,0.06-3.92-0.2-5.81-0.83c-3.8-1.28-7.29-3.83-9.52-7.69c3.83-2.23,8.26-2.48,12.08-1.15
						C1431.79,318.44,1435.04,321.39,1436.91,325.39z"/>
					<path class="st6" d="M1423.91,332.18L1423.91,332.18c-3.53,2-7.55,2.44-11.44,1.49c-3.87-0.95-7.58-3.23-10.11-6.89
						c1.82-1.25,3.83-2.06,5.88-2.39c2.03-0.36,4.11-0.25,6.08,0.26C1418.23,325.64,1421.72,328.34,1423.91,332.18z"/>
					<path class="st7" d="M1411.5,339.98L1411.5,339.98c-1.69,1.13-3.48,1.93-5.42,2.29c-1.9,0.41-3.88,0.45-5.87,0.12
						c-3.91-0.6-7.82-2.61-10.64-6.04l0,0c3.45-2.79,7.74-3.81,11.74-3.09C1405.32,333.95,1408.99,336.32,1411.5,339.98z"/>
				</g>
				<g>
					<g>
						<path class="st7" d="M1292.1,236.3c-0.38-0.03-0.68-0.36-0.66-0.73c1.77-27.18-4.39-54.77-17.15-78.81
							c-0.17-0.34-0.04-0.76,0.3-0.94c0.34-0.18,0.75-0.05,0.92,0.29c12.88,24.26,19.09,52.1,17.31,79.55
							C1292.8,236.04,1292.48,236.33,1292.1,236.3z"/>
					</g>
					<path class="st3" d="M1258.85,132.24L1258.85,132.24c-0.35,3.11-0.11,6.04,0.59,8.76c0.31,1.39,0.74,2.71,1.3,3.97
						c0.56,1.25,1.23,2.44,1.95,3.61c0.73,1.15,1.58,2.23,2.54,3.23c0.97,0.99,1.93,1.97,3.07,2.82c1.12,0.86,2.35,1.62,3.66,2.3
						c1.27,0.7,2.65,1.29,4.12,1.77l0,0c0.48-1.47,0.78-2.97,0.93-4.48c0.11-1.49,0.03-2.98-0.18-4.47
						c-0.23-1.47-0.54-2.96-1.11-4.34c-0.55-1.38-1.24-2.72-2.04-3.98c-0.78-1.28-1.75-2.43-2.83-3.47
						c-1.07-1.05-2.24-1.99-3.48-2.8C1264.78,133.59,1261.87,132.58,1258.85,132.24z"/>
					<path class="st6" d="M1251.57,161.94L1251.57,161.94c1.27,2.28,3.12,4.07,5.11,5.63c1.02,0.76,2.14,1.43,3.34,2
						c1.19,0.57,2.39,1.09,3.69,1.48c2.57,0.8,5.44,1.19,8.29,1.14c2.86-0.05,5.81-0.59,8.67-1.75l0,0c-0.28-0.71-0.6-1.4-0.95-2.07
						c-0.38-0.65-0.79-1.28-1.22-1.88c-0.87-1.2-1.84-2.28-2.89-3.24c-2.17-1.88-4.73-3.21-7.38-3.98
						C1262.78,157.82,1256.86,158.78,1251.57,161.94z"/>
					<path class="st7" d="M1259.94,178.82L1259.94,178.82c0.48,1.22,1.1,2.34,1.84,3.39c0.7,1.06,1.49,2.05,2.4,2.95
						c1.87,1.79,3.99,3.32,6.44,4.49c1.23,0.58,2.53,1.08,3.89,1.47c1.34,0.4,2.71,0.7,4.13,0.88c2.84,0.37,5.85,0.27,8.85-0.46l0,0
						c-0.38-1.49-0.84-2.92-1.54-4.23c-0.7-1.31-1.51-2.52-2.42-3.62c-0.46-0.55-0.94-1.07-1.44-1.56
						c-0.53-0.48-1.08-0.93-1.65-1.35c-1.14-0.84-2.35-1.55-3.62-2.12c-2.5-1.15-5.37-1.69-8.23-1.66
						C1265.72,177.04,1262.79,177.65,1259.94,178.82z"/>
					<path class="st3" d="M1265.75,196.78L1265.75,196.78c1.29,5.06,4.47,9.23,8.99,12.27c2.31,1.5,4.77,2.73,7.56,3.51
						c2.77,0.78,5.76,1.13,8.83,0.86l0,0c-0.15-1.53-0.46-3.01-0.9-4.41c-0.46-1.4-1.13-2.71-1.88-3.93
						c-0.76-1.22-1.59-2.34-2.6-3.34c-1.01-0.99-2.12-1.87-3.3-2.62c-2.35-1.5-5-2.47-7.87-2.86
						C1271.73,195.87,1268.74,196.04,1265.75,196.78z"/>
					<path class="st6" d="M1268.85,215.36L1268.85,215.36c0.06,0.65,0.18,1.28,0.3,1.91c0.11,0.63,0.25,1.24,0.43,1.85
						c0.36,1.21,0.86,2.38,1.49,3.5c1.17,2.25,2.79,4.32,4.83,6.15c3.9,3.63,9.37,6.38,15.53,6.8l0,0c0.11-3.07-0.28-6.03-1.49-8.66
						c-1.14-2.64-2.77-4.94-4.94-6.77c-2.13-1.83-4.59-3.18-7.34-3.99C1274.91,215.34,1271.92,215.08,1268.85,215.36z"/>
					<path class="st7" d="M1291.21,138.39L1291.21,138.39c1.76,3.1,2.97,6.34,3.3,9.61c0.19,1.62,0.23,3.22,0.11,4.77
						c-0.12,1.55-0.47,3.09-0.91,4.53c-0.92,2.89-2.37,5.46-4.39,7.61c-2.02,2.15-4.51,3.85-7.37,5.02h0
						c-0.29-0.72-0.53-1.45-0.74-2.18c-0.24-0.72-0.44-1.44-0.61-2.17c-0.33-1.46-0.52-2.93-0.57-4.41
						c-0.16-2.93,0.14-5.86,0.97-8.71C1282.52,146.84,1285.9,141.56,1291.21,138.39z"/>
					<path class="st3" d="M1302.64,161.42L1302.64,161.42c0.66,1.65,1.16,3.33,1.49,4.99c0.29,1.68,0.39,3.35,0.36,4.98
						c-0.03,3.24-0.85,6.35-2.16,9.07c-0.66,1.36-1.44,2.62-2.34,3.77c-0.92,1.16-1.99,2.2-3.14,3.12
						c-2.31,1.83-5.01,3.14-8.01,3.87l0,0c-0.39-1.5-0.54-3.02-0.68-4.51c-0.13-1.49-0.1-2.97,0.05-4.44
						c0.08-0.73,0.19-1.47,0.33-2.19c0.12-0.72,0.27-1.43,0.45-2.14c0.36-1.41,0.85-2.8,1.46-4.14c1.25-2.7,2.8-5.16,4.84-7.3
						C1297.32,164.36,1299.78,162.59,1302.64,161.42z"/>
					<path class="st6" d="M1310.54,185.84L1310.54,185.84c1.75,6.92,0.3,13.82-3.09,18.79c-1.64,2.49-3.94,4.55-6.46,6.01
						c-2.54,1.47-5.41,2.36-8.48,2.64l0,0c-0.15-1.54-0.15-3.06,0-4.56c0.12-1.49,0.32-2.95,0.69-4.38
						c0.35-1.43,0.88-2.83,1.44-4.17c0.56-1.34,1.24-2.64,2.02-3.88c1.59-2.48,3.59-4.71,5.88-6.52
						C1304.85,187.97,1307.54,186.58,1310.54,185.84z"/>
					<path class="st7" d="M1314.77,211.2L1314.77,211.2c0.08,0.89,0.14,1.77,0.13,2.64c-0.03,0.87-0.09,1.74-0.2,2.59
						c-0.21,1.7-0.56,3.33-1.05,4.88c-1.07,3.1-2.73,5.85-4.74,8.07c-4.21,4.46-9.94,6.7-16.09,6.29l0,0
						c0.11-3.1,0.97-6.02,2.03-8.73c1.13-2.72,2.77-5.23,4.63-7.44c1.9-2.21,4.24-4.13,6.81-5.58
						C1308.84,212.46,1311.7,211.48,1314.77,211.2z"/>
				</g>
				<g>
					<path class="st6" d="M1211.37,147.83c-0.29,3.07-0.36,6.07-0.29,9.03c2.76,0.28,5.57,0.57,8.35,0.91
						C1216.8,154.41,1214.1,151.11,1211.37,147.83z"/>
					<path class="st7" d="M1222.57,161.81c0.48-3.77,0.96-7.61,1.34-11.43c-4.02-1.31-8.24-2.16-12.54-2.55l0,0
						c2.73,3.28,5.43,6.58,8.06,9.94c-2.78-0.34-5.59-0.63-8.35-0.91c0.05,2.52,0.24,4.97,0.52,7.4c4.71,0.5,9.43,1.11,14.18,1.8
						L1222.57,161.81z"/>
					<path class="st3" d="M1238.47,184.12L1238.47,184.12c1.59-7.79,2.91-15.67,4.04-23.71c-3.47-2.76-7.24-5.15-11.24-7.08
						c-2.39-1.13-4.81-2.14-7.35-2.94c-0.38,3.82-0.85,7.66-1.34,11.43l3.21,4.24c-4.75-0.69-9.47-1.29-14.18-1.8
						c0.2,1.72,0.46,3.41,0.78,5.07c0.3,1.68,0.67,3.32,1.09,4.94c6.78,0.85,13.61,1.89,20.45,3.14
						C1235.47,179.63,1236.98,181.87,1238.47,184.12z"/>
					<path class="st7" d="M1253.96,172.42c-1.62,9.22-3.52,18.25-5.75,27.13c-1.08-1.76-2.12-3.53-3.22-5.27
						c-8.66-2.04-17.33-3.72-25.92-5.1c1.86,3.65,4,7.13,6.45,10.41c8.72,1.68,17.48,3.7,26.27,6.05c2.35-8.78,4.42-17.75,6.2-26.9
						C1256.77,176.55,1255.44,174.43,1253.96,172.42z"/>
					<path class="st6" d="M1238.47,184.12c2.22,3.35,4.39,6.74,6.52,10.15c1.1,1.74,2.15,3.52,3.22,5.27
						c2.23-8.87,4.13-17.91,5.75-27.13c-3.25-4.5-7.13-8.54-11.45-12.01C1241.38,168.44,1240.06,176.33,1238.47,184.12
						L1238.47,184.12z"/>
					<path class="st6" d="M1233.93,177.42c-6.84-1.25-13.68-2.29-20.45-3.14c0.52,2,1.1,3.98,1.78,5.89
						c7.68,1.07,15.46,2.37,23.22,3.95C1236.98,181.87,1235.47,179.63,1233.93,177.42z"/>
					<path class="st6" d="M1258.39,217.55c1.52,2.83,2.97,5.69,4.43,8.54h0c3.32-9.98,3.72-20.48,1.56-30.45
						C1262.58,203.07,1260.58,210.38,1258.39,217.55L1258.39,217.55z"/>
					<path class="st3" d="M1238.47,184.12c-7.76-1.59-15.54-2.88-23.22-3.95c1.07,3.11,2.36,6.1,3.82,9
						c8.59,1.38,17.25,3.07,25.92,5.1C1242.86,190.85,1240.69,187.47,1238.47,184.12z"/>
					<path class="st3" d="M1236.91,211.68c7.26,6.13,15.93,11.09,25.91,14.41c-1.46-2.86-2.91-5.72-4.43-8.54
						C1251.23,215.36,1244.06,213.4,1236.91,211.68z"/>
					<path class="st3" d="M1258.39,217.55L1258.39,217.55c2.2-7.17,4.19-14.48,5.99-21.91c-1.26-5.92-3.45-11.62-6.39-16.91
						c-1.78,9.15-3.85,18.12-6.2,26.9C1254.04,209.57,1256.26,213.53,1258.39,217.55z"/>
					<path class="st6" d="M1251.79,205.62c-8.79-2.35-17.56-4.37-26.27-6.05c3.27,4.42,7.11,8.46,11.39,12.11
						c7.15,1.72,14.32,3.68,21.48,5.87C1256.26,213.53,1254.04,209.57,1251.79,205.62z"/>
				</g>
				<g>
					<path class="st6" d="M1452.77,190.74c-2.4-0.4-4.78-0.63-7.14-0.7l-1.1,6.58L1452.77,190.74z"/>
					<path class="st7" d="M1441.22,198.97l8.94,1.5c1.16-3.1,2.04-6.35,2.61-9.73l0,0l-8.25,5.87l1.1-6.58
						c-2-0.06-3.99-0.01-5.95,0.15l-1.88,11.22L1441.22,198.97z"/>
					<path class="st3" d="M1423.57,211.55L1423.57,211.55l18.57,3.12c2.1-2.65,3.96-5.51,5.53-8.57c0.93-1.81,1.76-3.69,2.49-5.63
						l-8.94-1.5l-3.43,2.44l1.88-11.22c-2.77,0.23-5.5,0.68-8.16,1.34l-2.74,16.3L1423.57,211.55z"/>
					<path class="st7" d="M1433.2,223.51l-21.39-3.59l3.98-2.84l3.5-20.85c-2.99,1.61-5.83,3.5-8.46,5.64l-3.58,21.29l21.29,3.58
						C1430.16,225.75,1431.71,224.67,1433.2,223.51z"/>
					<path class="st6" d="M1423.57,211.55l-7.77,5.54l-3.98,2.84l21.39,3.59c3.31-2.57,6.32-5.54,8.95-8.85L1423.57,211.55
						L1423.57,211.55z"/>
					<path class="st6" d="M1428.78,207.83l2.74-16.3c-1.64,0.4-3.25,0.89-4.84,1.44l-3.12,18.57L1428.78,207.83z"/>
					<path class="st6" d="M1398.48,229.42l-6.2,4.42v0c8.21,1.38,16.29,0.77,23.75-1.47L1398.48,229.42L1398.48,229.42z"/>
					<path class="st3" d="M1423.57,211.55l3.12-18.57c-2.55,0.9-5.02,1.99-7.39,3.26l-3.5,20.85L1423.57,211.55z"/>
					<path class="st3" d="M1401.42,211.87c-4.56,6.32-7.77,13.76-9.15,21.97l6.2-4.42L1401.42,211.87z"/>
					<path class="st3" d="M1398.48,229.42L1398.48,229.42l17.55,2.95c4.42-1.33,8.63-3.23,12.52-5.63l-21.29-3.58L1398.48,229.42z"
						/>
					<path class="st6" d="M1407.26,223.16l3.58-21.29c-3.54,2.89-6.71,6.25-9.41,10l-2.95,17.55L1407.26,223.16z"/>
				</g>
				<g>
					<path class="st6" d="M1408.3,169.24c-1.49,1.42-2.83,2.9-4.1,4.41c1.26,1.35,2.55,2.72,3.79,4.12
						C1408.15,174.93,1408.24,172.09,1408.3,169.24z"/>
					<path class="st7" d="M1407.77,181.18c1.9-1.67,3.84-3.38,5.71-5.14c-1.44-2.44-3.19-4.72-5.18-6.79h0
						c-0.06,2.84-0.15,5.69-0.31,8.52c-1.24-1.4-2.52-2.77-3.79-4.12c-1.08,1.28-2.05,2.59-2.99,3.92c2.14,2.31,4.22,4.69,6.28,7.15
						L1407.77,181.18z"/>
					<path class="st3" d="M1405.68,199.31L1405.68,199.31c4.3-3.11,8.48-6.43,12.63-9.95c-0.49-2.95-1.3-5.83-2.45-8.59
						c-0.69-1.63-1.46-3.22-2.38-4.74c-1.87,1.76-3.8,3.47-5.71,5.14l-0.28,3.53c-2.06-2.45-4.15-4.83-6.28-7.15
						c-1.3,1.88-2.47,3.81-3.49,5.77c3,3.4,5.92,6.95,8.74,10.63C1406.23,195.76,1405.96,197.54,1405.68,199.31z"/>
					<path class="st7" d="M1418.57,200.54c-4.96,3.85-9.99,7.43-15.12,10.73c0.28-1.35,0.58-2.68,0.83-4.03
						c-3.3-4.93-6.8-9.65-10.42-14.13c-0.71,2.6-1.23,5.24-1.51,7.92c3.51,4.72,6.87,9.67,10.05,14.84
						c5.16-3.17,10.26-6.62,15.28-10.34C1418.07,203.87,1418.39,202.21,1418.57,200.54z"/>
					<path class="st6" d="M1405.68,199.31c-0.42,2.65-0.89,5.29-1.4,7.92c-0.25,1.35-0.56,2.69-0.83,4.03
						c5.13-3.29,10.16-6.88,15.12-10.73c0.44-3.72,0.34-7.5-0.26-11.18C1414.16,192.88,1409.98,196.21,1405.68,199.31
						L1405.68,199.31z"/>
					<path class="st6" d="M1406.46,193.97c-2.82-3.68-5.74-7.23-8.74-10.63c-0.62,1.21-1.22,2.44-1.73,3.68
						c3.33,3.91,6.6,8.02,9.69,12.3C1405.96,197.54,1406.23,195.76,1406.46,193.97z"/>
					<path class="st6" d="M1400.09,224.64c-0.58,2.06-1.21,4.1-1.84,6.14l0,0c6.23-3.22,11.3-8.12,14.83-14.01
						C1408.79,219.59,1404.46,222.22,1400.09,224.64L1400.09,224.64z"/>
					<path class="st3" d="M1405.68,199.31c-3.09-4.28-6.36-8.38-9.69-12.3c-0.86,2-1.55,4.03-2.13,6.08
						c3.62,4.48,7.12,9.2,10.42,14.13C1404.79,204.6,1405.26,201.96,1405.68,199.31z"/>
					<path class="st3" d="M1392.41,211.98c0.73,6.23,2.61,12.58,5.83,18.81c0.63-2.04,1.27-4.08,1.84-6.14
						C1397.66,220.28,1395.1,216.05,1392.41,211.98z"/>
					<path class="st3" d="M1400.09,224.64L1400.09,224.64c4.37-2.43,8.71-5.05,12.98-7.86c2.11-3.48,3.64-7.3,4.61-11.27
						c-5.02,3.72-10.12,7.17-15.28,10.34C1401.68,218.8,1400.93,221.73,1400.09,224.64z"/>
					<path class="st6" d="M1402.4,215.85c-3.18-5.17-6.53-10.12-10.05-14.84c-0.39,3.6-0.35,7.27,0.06,10.96
						c2.69,4.07,5.25,8.3,7.67,12.66C1400.93,221.73,1401.68,218.8,1402.4,215.85z"/>
				</g>
			</g>
			<g>
				<g>
					<path class="st8" d="M1439.41,218.55l-49.5-19.37l-49.5-19.37c-1.64-0.64-3.34-0.93-5-0.92v0h-0.17c-0.04,0-0.08,0-0.11,0
						h-14.56l4.64,4.81c-0.92,1.09-1.68,2.34-2.23,3.75l-78.67,201c-2.71,6.92,0.71,14.73,7.63,17.44l91.43,35.79l-2.13,3.89h14.47
						l-0.02-0.02c5.44,0.06,10.59-3.18,12.69-8.54l78.67-201C1449.75,229.07,1446.33,221.26,1439.41,218.55z"/>
					<path class="st4" d="M1336.11,444.62l-99-38.75c-6.92-2.71-10.34-10.52-7.63-17.44l78.67-201c2.71-6.92,10.52-10.34,17.44-7.63
						l49.5,19.37l49.5,19.37c6.92,2.71,10.34,10.52,7.63,17.44l-78.67,201C1350.84,443.91,1343.03,447.33,1336.11,444.62z"/>
					<g>
						<path class="st8" d="M1316.79,232.78L1316.79,232.78c-5.54-2.17-8.27-8.42-6.1-13.95l7.22-18.46
							c2.17-5.54,8.42-8.27,13.95-6.1l0,0c5.54,2.17,8.27,8.42,6.1,13.95l-3.61,9.23l-3.61,9.23
							C1328.58,232.21,1322.33,234.94,1316.79,232.78z"/>
						<path class="st3" d="M1315.2,232.15L1315.2,232.15c-5.54-2.17-8.27-8.42-6.1-13.95l7.22-18.46c2.17-5.54,8.42-8.27,13.95-6.1
							l0,0c5.54,2.17,8.27,8.42,6.1,13.95l-3.61,9.23l-3.61,9.23C1326.99,231.59,1320.74,234.32,1315.2,232.15z"/>
						<g>
							<path class="st8" d="M1332.65,206.65c-1.4,3.58-5.44,5.34-9.01,3.94s-5.34-5.44-3.94-9.01c1.4-3.58,5.44-5.34,9.01-3.94
								C1332.29,199.04,1334.05,203.08,1332.65,206.65z"/>
							<path class="st9" d="M1324.13,209.34c-2.88-1.13-4.31-4.39-3.18-7.27c1.13-2.88,4.39-4.31,7.27-3.18
								c2.88,1.13,4.31,4.39,3.18,7.27S1327.01,210.47,1324.13,209.34z"/>
							<path class="st8" d="M1325.78,224.2c-1.4,3.58-5.44,5.34-9.01,3.94c-3.58-1.4-5.34-5.44-3.94-9.01
								c1.4-3.58,5.44-5.34,9.01-3.94C1325.42,216.59,1327.18,220.63,1325.78,224.2z"/>
							<path class="st9" d="M1317.26,226.89c-2.88-1.13-4.31-4.39-3.18-7.27c1.13-2.88,4.39-4.31,7.27-3.18
								c2.88,1.13,4.31,4.39,3.18,7.27C1323.4,226.59,1320.14,228.02,1317.26,226.89z"/>
							<path class="st5" d="M1330.57,203.52c-0.43,1.11-1.69,1.66-2.8,1.22c-1.11-0.43-1.66-1.69-1.22-2.8
								c0.43-1.11,1.69-1.66,2.8-1.22C1330.45,201.15,1331,202.41,1330.57,203.52z"/>
							<path class="st5" d="M1323.61,221.28c-0.43,1.11-1.69,1.66-2.8,1.22s-1.66-1.69-1.22-2.8c0.43-1.11,1.69-1.66,2.8-1.22
								C1323.5,218.91,1324.05,220.17,1323.61,221.28z"/>
						</g>
					</g>
					<g>
						<path class="st3" d="M1355.56,284.77c-2.62,6.69-10.17,9.99-16.86,7.38c-6.69-2.62-9.99-10.17-7.38-16.86
							c2.62-6.69,10.17-9.99,16.86-7.38C1354.88,270.53,1358.18,278.08,1355.56,284.77z"/>
						<g>
							<path class="st3" d="M1330.17,396.76l-56.21-22c-0.63-0.25-1.35,0.06-1.6,0.7c-0.25,0.63,0.06,1.35,0.7,1.6l56.21,22
								c0.63,0.25,1.35-0.06,1.6-0.7C1331.11,397.72,1330.8,397,1330.17,396.76z"/>
							<path class="st3" d="M1322.92,399.88l-45.77-17.91c-0.63-0.25-1.35,0.06-1.6,0.7c-0.25,0.63,0.06,1.35,0.7,1.6l45.77,17.91
								c0.63,0.25,1.35-0.06,1.6-0.7C1323.87,400.85,1323.56,400.13,1322.92,399.88z"/>
							<path class="st3" d="M1306.35,399.36l-16.66-6.52c-0.63-0.25-1.35,0.06-1.6,0.7c-0.25,0.63,0.06,1.35,0.7,1.6l16.66,6.52
								c0.63,0.25,1.35-0.06,1.6-0.7C1307.3,400.32,1306.98,399.61,1306.35,399.36z"/>
						</g>
					</g>
					<g>
						<g>
							<path class="st10" d="M1429.44,267.31l0.13-0.33l-1.18-0.46c-1.27-0.5-2.7,0.13-3.2,1.4l-8.91,22.77
								c-0.5,1.27,0.13,2.7,1.4,3.2l1.18,0.46l0.13-0.33c0.83-0.14,1.56-0.69,1.89-1.53l4.46-11.39l4.46-11.39
								C1430.12,268.88,1429.95,267.98,1429.44,267.31z"/>
							<path class="st11" d="M1418.85,294.35L1418.85,294.35c-1.27-0.5-1.9-1.93-1.4-3.2l8.91-22.77c0.5-1.27,1.93-1.9,3.2-1.4l0,0
								c1.27,0.5,1.9,1.93,1.4,3.2l-4.46,11.39l-4.46,11.39C1421.55,294.22,1420.12,294.85,1418.85,294.35z"/>
						</g>
						<g>
							<path class="st10" d="M1415.9,301.89l0.13-0.33l-1.18-0.46c-1.27-0.5-2.7,0.13-3.2,1.4l-8.91,22.77
								c-0.5,1.27,0.13,2.7,1.4,3.2l1.18,0.46l0.13-0.33c0.83-0.14,1.56-0.69,1.89-1.53l4.46-11.39l4.46-11.39
								C1416.58,303.46,1416.41,302.56,1415.9,301.89z"/>
							<path class="st11" d="M1405.32,328.93L1405.32,328.93c-1.27-0.5-1.9-1.93-1.4-3.2l8.91-22.77c0.5-1.27,1.93-1.9,3.2-1.4l0,0
								c1.27,0.5,1.9,1.93,1.4,3.2l-4.46,11.39l-4.46,11.39C1408.02,328.8,1406.59,329.43,1405.32,328.93z"/>
						</g>
					</g>
					<g>
						<path class="st3" d="M1413.89,237.44c-3.81-1.49-8.1,0.39-9.59,4.2l-17.24,44.03c-1.49,3.81,0.39,8.1,4.2,9.59
							c3.81,1.49,8.1-0.39,9.59-4.2l17.24-44.03C1419.58,243.22,1417.7,238.93,1413.89,237.44z"/>
						<path class="st3" d="M1387.13,305.8c-3.81-1.49-8.1,0.39-9.59,4.2l-1.08,2.75c-1.49,3.81,0.39,8.1,4.2,9.59
							c3.81,1.49,8.1-0.39,9.59-4.2l1.08-2.75C1392.82,311.59,1390.94,307.3,1387.13,305.8z"/>
					</g>
					
						<rect x="1239.78" y="371.76" transform="matrix(0.9312 0.3645 -0.3645 0.9312 226.4342 -450.3883)" class="st3" width="133.24" height="5.83"/>
				</g>
				<g>
					<g>
						<path class="st8" d="M1256.99,449.28l-104.71-18.4c-7.32-1.29-12.22-8.27-10.93-15.59l37.35-212.59
							c1.29-7.32,8.27-12.22,15.59-10.93l52.35,9.2l52.35,9.2c7.32,1.29,12.22,8.27,10.93,15.59l-37.35,212.59
							C1271.29,445.67,1264.31,450.56,1256.99,449.28z"/>
						<g>
							<path class="st4" d="M1241.32,446.52l-104.71-18.4c-7.32-1.29-12.22-8.27-10.93-15.59l37.35-212.59
								c1.29-7.32,8.27-12.22,15.59-10.93l52.35,9.2l52.35,9.2c7.32,1.29,12.22,8.27,10.93,15.59l-37.35,212.59
								C1255.62,442.92,1248.64,447.81,1241.32,446.52z"/>
							<path class="st9" d="M1282.63,211.39l-16.39-2.88c-2.32-0.41-4.68,0.39-6.28,2.11l-6.8,7.31c-1.6,1.72-3.96,2.51-6.28,2.11
								l-38.3-6.73c-2.32-0.41-4.27-1.96-5.19-4.12l-3.9-9.19c-0.92-2.16-2.87-3.72-5.19-4.12l-16.39-2.88
								c-5.13-0.9-10.01,2.52-10.91,7.65l-37.35,212.59c-0.9,5.13,2.52,10.01,7.65,10.91l104.71,18.4
								c5.13,0.9,10.01-2.52,10.91-7.65l37.35-212.59C1291.18,217.18,1287.76,212.29,1282.63,211.39z"/>
							<g>
								<path class="st8" d="M1234.47,207.49l-19.01-3.34c-0.95-0.17-1.85,0.47-2.01,1.41c-0.17,0.95,0.47,1.85,1.41,2.01
									l19.01,3.34c0.95,0.17,1.85-0.47,2.01-1.41C1236.05,208.55,1235.42,207.65,1234.47,207.49z"/>
								<path class="st8" d="M1243.53,209.08c-0.95-0.17-1.85,0.47-2.01,1.41c-0.17,0.95,0.47,1.85,1.41,2.01
									c0.95,0.17,1.85-0.47,2.01-1.41C1245.11,210.15,1244.48,209.24,1243.53,209.08z"/>
							</g>
						</g>
						<g>
							<path class="st12" d="M1297.21,263.56l0.06-0.35l-1.24-0.22c-1.34-0.24-2.62,0.66-2.86,2l-4.23,24.09
								c-0.24,1.34,0.66,2.62,2,2.86l1.24,0.22l0.06-0.35c0.78-0.3,1.4-0.98,1.55-1.87l2.12-12.04l2.12-12.04
								C1298.19,264.96,1297.84,264.11,1297.21,263.56z"/>
							<path class="st12" d="M1292.18,292.16L1292.18,292.16c-1.34-0.24-2.24-1.52-2-2.86l4.23-24.09c0.24-1.34,1.52-2.24,2.86-2
								l0,0c1.34,0.24,2.24,1.52,2,2.86l-2.12,12.04l-2.12,12.04C1294.81,291.5,1293.53,292.39,1292.18,292.16z"/>
						</g>
					</g>
					<g>
						<path class="st13" d="M1202.01,288.35l-34.14-6c-3.66-0.64-6.11-4.13-5.46-7.79l7.4-42.1c0.64-3.66,4.13-6.11,7.79-5.47
							l17.07,3l17.07,3c3.66,0.64,6.11,4.13,5.46,7.79l-7.4,42.1C1209.16,286.55,1205.67,288.99,1202.01,288.35z"/>
						
							<ellipse transform="matrix(0.9004 -0.4352 0.4352 0.9004 9.9561 543.2424)" class="st14" cx="1191.17" cy="249.88" rx="13.57" ry="13.57"/>
						
							<rect x="1172.05" y="267.52" transform="matrix(0.9849 0.173 -0.173 0.9849 64.6271 -201.4414)" class="st14" width="31.19" height="4.82"/>
						
							<rect x="1171.9" y="275.28" transform="matrix(0.9849 0.173 -0.173 0.9849 65.7595 -201.1463)" class="st14" width="29.17" height="2.58"/>
					</g>
					<g>
						<path class="st13" d="M1260.35,298.6l-34.14-6c-3.66-0.64-6.11-4.13-5.46-7.79l7.4-42.1c0.64-3.66,4.13-6.11,7.79-5.46
							l17.07,3l17.07,3c3.66,0.64,6.11,4.13,5.46,7.79l-7.4,42.1C1267.5,296.8,1264.01,299.24,1260.35,298.6z"/>
						<path class="st14" d="M1262.88,262.48c-1.3,7.38-8.34,12.32-15.72,11.02c-7.38-1.3-12.32-8.34-11.02-15.72
							c1.3-7.38,8.34-12.32,15.72-11.02C1259.24,248.06,1264.18,255.1,1262.88,262.48z"/>
						
							<rect x="1230.39" y="277.78" transform="matrix(0.9849 0.173 -0.173 0.9849 67.281 -211.3823)" class="st14" width="31.19" height="4.82"/>
						
							<rect x="1230.24" y="285.53" transform="matrix(0.9849 0.173 -0.173 0.9849 68.4135 -211.0875)" class="st14" width="29.17" height="2.58"/>
					</g>
					<g>
						<path class="st13" d="M1248.74,370.08l-94.32-16.57c-3.15-0.55-5.26-3.56-4.71-6.71l8.83-50.28c0.55-3.15,3.56-5.26,6.71-4.71
							l94.32,16.57c3.15,0.55,5.26,3.56,4.71,6.71l-8.83,50.28C1254.9,368.53,1251.89,370.63,1248.74,370.08z"/>
						
							<ellipse transform="matrix(0.9518 -0.3067 0.3067 0.9518 -39.1999 376.3663)" class="st14" cx="1177.94" cy="312.91" rx="13.57" ry="13.57"/>
						
							<rect x="1197.68" y="306.95" transform="matrix(0.9849 0.173 -0.173 0.9849 71.8382 -205.2848)" class="st14" width="31.19" height="4.82"/>
						
							<rect x="1196.1" y="318.25" transform="matrix(0.9849 0.173 -0.173 0.9849 73.7779 -207.1656)" class="st14" width="57.84" height="2.58"/>
						
							<rect x="1195.03" y="324.33" transform="matrix(0.9849 0.173 -0.173 0.9849 74.8128 -206.8878)" class="st14" width="57.84" height="2.58"/>
						
							<rect x="1194.18" y="327.93" transform="matrix(0.9849 0.173 -0.173 0.9849 75.2059 -204.2053)" class="st14" width="29.17" height="2.58"/>
						
							<rect x="1159.7" y="339.44" transform="matrix(0.9849 0.173 -0.173 0.9849 77.3987 -203.3053)" class="st14" width="90" height="5.61"/>
						
							<rect x="1158.46" y="343.99" transform="matrix(0.9849 0.173 -0.173 0.9849 77.7407 -198.125)" class="st14" width="33.36" height="5.61"/>
						
							<rect x="1197.45" y="352.32" transform="matrix(0.9849 0.173 -0.173 0.9849 79.8995 -206.2108)" class="st14" width="50.29" height="5.61"/>
					</g>
					<g>
						<path class="st13" d="M1204.64,426.57l1.26-7.17c0.35-1.98-0.98-3.87-2.96-4.22l-18.02-3.17c-1.98-0.35-3.87,0.98-4.22,2.96
							l-1.26,7.17c-0.78,4.42-4.9,7.44-9.35,6.86l-20.59-2.71l28.33,4.98l25.19,4.43l28.33,4.98l-20.28-4.47
							C1206.71,435.24,1203.87,430.99,1204.64,426.57z"/>
						<path class="st14" d="M1200.89,420.91l-16.74-2.94c-0.62-0.11-1.03-0.7-0.92-1.32l0,0c0.11-0.62,0.7-1.03,1.32-0.92l8.37,1.47
							l8.37,1.47c0.62,0.11,1.03,0.7,0.92,1.32l0,0C1202.09,420.61,1201.5,421.02,1200.89,420.91z"/>
						<path class="st14" d="M1200.24,424.61l-16.74-2.94c-0.62-0.11-1.03-0.7-0.92-1.32l0,0c0.11-0.62,0.7-1.03,1.32-0.92l8.37,1.47
							l8.37,1.47c0.62,0.11,1.03,0.7,0.92,1.32l0,0C1201.44,424.31,1200.85,424.72,1200.24,424.61z"/>
						<path class="st14" d="M1199.59,428.31l-16.74-2.94c-0.62-0.11-1.03-0.7-0.92-1.32l0,0c0.11-0.62,0.7-1.03,1.32-0.92l8.37,1.47
							l8.37,1.47c0.62,0.11,1.03,0.7,0.92,1.32l0,0C1200.79,428.01,1200.2,428.42,1199.59,428.31z"/>
					</g>
					<g>
						<g>
							<path class="st13" d="M1175.27,379.11c-1.3,7.38-8.34,12.32-15.72,11.02c-7.38-1.3-12.32-8.33-11.02-15.72
								c1.3-7.38,8.33-12.32,15.72-11.02C1171.64,364.69,1176.57,371.72,1175.27,379.11z"/>
							
								<rect x="1144.74" y="394.4" transform="matrix(0.9849 0.173 -0.173 0.9849 86.2093 -194.4507)" class="st13" width="27.15" height="5.61"/>
						</g>
						<polygon class="st14" points="1163.37,368.52 1165.01,374.14 1170.57,375.97 1165.74,379.26 1165.71,385.11 1161.09,381.54 
							1155.52,383.32 1157.49,377.81 1154.07,373.07 1159.92,373.24 						"/>
					</g>
					<g>
						<g>
							<path class="st13" d="M1212.63,385.67c-1.3,7.38-8.33,12.32-15.72,11.02c-7.38-1.3-12.32-8.33-11.02-15.72
								c1.3-7.38,8.34-12.32,15.72-11.02C1208.99,371.25,1213.92,378.29,1212.63,385.67z"/>
							
								<rect x="1182.09" y="400.96" transform="matrix(0.9849 0.173 -0.173 0.9849 87.9078 -200.8142)" class="st13" width="27.15" height="5.61"/>
						</g>
						<path class="st14" d="M1205.69,382.42l-7.19-6.02c-1.09-0.92-2.77-0.31-3.02,1.1l-1.62,9.23c-0.25,1.41,1.12,2.55,2.46,2.06
							l4.67-1.7l4.13-1.51C1206.48,385.09,1206.79,383.33,1205.69,382.42z"/>
					</g>
					<g>
						<g>
							<path class="st13" d="M1249.98,392.23c-1.3,7.38-8.34,12.32-15.72,11.02c-7.38-1.3-12.32-8.33-11.02-15.72
								c1.3-7.38,8.33-12.32,15.72-11.02C1246.34,377.81,1251.28,384.85,1249.98,392.23z"/>
							
								<rect x="1219.44" y="407.52" transform="matrix(0.9849 0.173 -0.173 0.9849 89.6071 -207.179)" class="st13" width="27.15" height="5.61"/>
						</g>
						<g>
							<path class="st14" d="M1242.52,384.89l-1.3-0.23c-0.55-0.1-0.91-0.62-0.82-1.17c0.1-0.55-0.27-1.07-0.82-1.17l-3.2-0.56
								c-0.55-0.1-1.07,0.27-1.17,0.82c-0.1,0.55-0.62,0.91-1.17,0.82l-1.3-0.23c-1.86-0.33-3.63,0.91-3.95,2.77l-0.89,5.04
								c-0.33,1.86,0.91,3.63,2.77,3.95l9.77,1.72c1.86,0.33,3.63-0.91,3.95-2.77l0.89-5.04
								C1245.62,386.99,1244.38,385.22,1242.52,384.89z M1236.08,392.88c-1.64-0.29-2.73-1.85-2.45-3.49
								c0.29-1.64,1.85-2.73,3.49-2.45c1.64,0.29,2.73,1.85,2.45,3.49C1239.28,392.08,1237.72,393.17,1236.08,392.88z"/>
						</g>
					</g>
				</g>
			</g>
		</g>
	</g>
	<g>
		<g>
			<path class="st3" d="M234.59,331.8H0v4.41h238.77C237.43,334.69,236.04,333.22,234.59,331.8z"/>
			<path class="st3" d="M0,357.44h252.24c-0.65-1.5-1.35-2.96-2.08-4.41H0V357.44z"/>
			<path class="st3" d="M0,378.67h258.08c-0.2-1.48-0.43-2.95-0.7-4.41H0V378.67z"/>
			<path class="st3" d="M0,399.9h258.07c0.19-1.46,0.35-2.93,0.46-4.41H0V399.9z"/>
			<path class="st3" d="M0,421.13h252.21c0.63-1.45,1.22-2.92,1.77-4.41H0V421.13z"/>
			<path class="st3" d="M0,442.36h238.72c1.26-1.43,2.47-2.9,3.63-4.41H0V442.36z"/>
		</g>
	</g>
</g>
<g id="TEXTS">
</g>
</svg>
