<svg  xmlns="http://www.w3.org/2000/svg" xmlns:xlink="http://www.w3.org/1999/xlink" version="1.1" id="_1" x="0px" y="0px" viewBox="0 0 641 394" style="enable-background:new 0 0 641 394;" xml:space="preserve">
<style type="text/css">
	.st0{fill:#FFFFFF;}
	.st1{fill:#5B99BC;}
</style>
<g>
	<path class="st0" d="M32.3,299.3c-18.4,0-27.6-9.4-27.6-28.3V84.7c0-18.4,9.3-27.6,28-27.6l93.8-0.2c56,0,84,28.6,84,85.9v128.8   c0,18.7-9.3,28-28,28c-18.7,0-28-9.5-28-28.5V141.7c0-19.1-9.5-28.7-28.5-28.7H60.8v158C60.8,289.9,51.3,299.3,32.3,299.3z"/>
	<path class="st1" d="M257.3,103.9c0-19,9.2-28.5,27.6-28.5h93.8c56.3,0,84.5,28,84.5,84v72.8c0,57.3-28,85.9-84,85.9h-65.8v46.7   c0,19-9.3,28.5-28,28.5c-18.7,0-28-9.2-28-27.8V103.9z M313.3,131.7v130.5h65.3c19,0,28.5-9.7,28.5-29v-74.5   c0-18-9.5-27.1-28.5-27.1H313.3z"/>
	<path class="st0" d="M641,272.2c0,18.4-9.3,27.6-28,27.6h-19.1c-56,0-84-28.6-84-85.9V29c0-18.7,9.3-28,28-28   c18.8-0.2,28.2,9.2,28,28v27.8l45.5,0.2c19.6-0.2,29.4,9.1,29.4,27.8c0,18.2-9.5,27.5-28.5,27.8h-46.5v102.7   c0,19,9.5,28.5,28.5,28.5l19.1,0.2C631.8,243.9,641,253.3,641,272.2z"/>
</g>
</svg>